<?xml version="1.0" standalone="no"?>
<!DOCTYPE svg PUBLIC "-//W3C//DTD SVG 20010904//EN"
 "http://www.w3.org/TR/2001/REC-SVG-20010904/DTD/svg10.dtd">
<svg version="1.0" xmlns="http://www.w3.org/2000/svg"
 width="640.000000pt" height="640.000000pt" viewBox="0 0 640.000000 640.000000"
 preserveAspectRatio="xMidYMid meet">

<g transform="translate(0.000000,640.000000) scale(0.100000,-0.100000)"
fill="#000000" stroke="none">
<path d="M3104 6235 c-274 -49 -516 -182 -746 -407 -195 -192 -344 -437 -414
-681 -72 -252 -113 -516 -164 -1067 -24 -254 -74 -553 -119 -700 -11 -36 -45
-146 -76 -245 -65 -209 -108 -388 -125 -531 -24 -192 1 -441 56 -569 l17 -40
9 39 c6 28 4 53 -6 85 -35 111 -41 159 -40 316 1 236 29 369 167 805 92 291
142 570 187 1040 6 63 13 130 16 148 7 36 33 44 35 10 1 -22 1 -22 8 2 5 18
10 4 20 -59 7 -45 10 -86 7 -89 -3 -3 -6 5 -6 18 0 51 -11 7 -25 -96 -8 -60
-19 -140 -25 -178 -6 -38 -8 -71 -5 -74 3 -3 5 4 5 16 0 12 4 22 10 22 5 0 7
-6 4 -13 -3 -8 2 -20 10 -27 9 -7 14 -15 12 -19 -2 -3 -7 -60 -10 -126 -14
-254 -27 -404 -42 -517 -9 -64 -14 -125 -12 -135 5 -26 67 163 75 226 5 48 8
52 20 36 7 -11 13 -27 13 -37 0 -10 9 -35 21 -56 19 -34 20 -34 16 -9 -2 15
-1 30 3 32 10 6 20 -57 20 -128 0 -32 -7 -145 -16 -250 -9 -106 -17 -280 -17
-387 -1 -168 2 -218 25 -360 15 -91 30 -189 34 -219 5 -41 9 -49 16 -36 7 12
17 15 35 10 38 -9 61 2 56 28 -4 23 63 237 99 313 15 33 23 42 29 32 7 -11 9
-11 9 0 0 7 4 11 9 7 6 -3 15 3 21 12 11 17 11 17 6 1 -3 -10 -9 -25 -12 -33
-4 -10 -2 -15 7 -13 7 2 13 -3 14 -9 0 -7 5 -12 10 -11 6 2 9 6 8 10 -6 16 25
8 31 -8 5 -14 -5 -45 -55 -164 -10 -25 -30 -75 -43 -113 l-25 -67 25 0 c21 0
29 10 53 63 15 34 37 82 48 107 11 25 27 62 34 84 l14 38 9 -33 c24 -94 11
-238 -22 -232 -6 2 -9 -4 -6 -12 4 -11 2 -13 -9 -9 -9 3 -15 0 -14 -8 1 -7 -3
-41 -7 -74 -7 -51 -13 -64 -33 -75 -16 -8 -22 -18 -17 -28 12 -28 22 -96 16
-106 -3 -5 -1 -7 3 -2 5 4 20 34 35 67 15 33 46 81 71 108 51 55 97 94 84 72
-8 -13 -6 -13 8 -1 9 7 14 17 11 22 -5 9 28 20 61 20 134 0 155 -6 155 -44 0
-20 1 -20 18 -4 25 26 23 206 -6 437 -24 193 -34 283 -26 240 3 -14 10 -37 15
-52 9 -23 15 -26 46 -22 31 4 34 3 28 -17 -5 -14 -3 -20 5 -17 6 2 12 29 14
64 3 69 9 84 37 84 12 0 17 -4 13 -11 -4 -7 -1 -10 7 -7 8 3 13 10 12 16 -2 7
19 14 47 18 27 4 47 10 45 15 -3 4 -1 10 5 14 6 4 10 -6 11 -22 1 -26 2 -25
13 10 9 29 14 35 24 25 9 -9 12 -8 12 5 0 9 5 17 10 17 6 0 10 -5 10 -11 0 -8
5 -8 15 1 8 7 15 19 15 26 0 8 5 14 11 14 6 0 9 -7 5 -15 -3 -8 -1 -15 4 -15
6 0 10 11 10 25 0 14 4 25 10 25 5 0 7 -7 4 -15 -5 -12 -2 -13 17 -6 13 5 23
16 23 25 -1 12 3 15 17 11 11 -4 19 -2 19 5 0 6 5 8 10 5 6 -4 24 1 42 9 17 9
42 16 55 16 14 0 23 6 23 15 0 8 7 15 15 15 8 0 15 -9 15 -20 0 -11 5 -20 10
-20 6 0 10 7 10 15 0 15 11 19 39 15 8 -1 12 4 8 13 -3 9 1 18 9 21 10 4 13 2
7 -6 -4 -7 15 5 42 27 70 57 216 225 208 238 -3 7 -3 9 2 5 9 -8 35 15 35 31
0 6 5 11 11 11 6 0 20 12 32 26 19 25 21 26 28 8 4 -10 5 -64 2 -119 -5 -103
10 -299 28 -370 20 -74 62 -170 100 -226 63 -93 146 -162 314 -262 l48 -28
-47 -24 c-85 -43 -207 -138 -288 -224 -78 -84 -93 -117 -51 -115 12 0 25 -6
27 -13 4 -9 1 -12 -7 -7 -9 5 -9 4 1 -7 9 -10 15 -10 24 -1 7 7 8 12 3 12 -5
0 2 11 15 25 13 14 20 25 16 25 -4 0 5 11 19 25 14 14 25 32 25 40 0 8 4 15 8
15 5 0 18 18 31 40 37 65 86 76 96 21 3 -14 12 -46 20 -71 8 -25 12 -57 8 -70
l-6 -25 26 24 c15 13 24 28 20 34 -3 6 -2 7 3 4 6 -3 25 10 43 29 19 19 38 34
43 34 5 0 -20 -30 -56 -67 -57 -57 -66 -71 -66 -102 l1 -36 37 45 c20 25 58
66 85 91 26 25 49 57 51 70 2 13 9 50 16 81 10 43 18 58 34 62 38 10 46 6 82
-44 34 -48 38 -50 84 -50 62 0 166 -32 255 -78 98 -52 165 -122 218 -230 38
-79 45 -88 63 -81 l21 7 -23 69 c-50 150 -156 547 -194 722 -68 321 -95 560
-135 1191 -40 621 -86 1150 -121 1370 -50 316 -145 561 -292 760 -65 87 -196
222 -266 275 -143 107 -338 175 -503 176 -51 0 -121 8 -168 20 -95 22 -298 25
-411 4z m371 -42 c28 -4 44 -8 37 -10 -6 -3 -10 -9 -6 -14 3 -5 1 -9 -5 -9 -6
0 -7 -7 -4 -17 4 -11 3 -14 -5 -9 -16 10 -15 -3 3 -39 l15 -30 -30 32 c-45 50
-140 83 -140 49 0 -7 14 -19 31 -26 38 -16 63 -53 57 -85 -3 -13 0 -26 6 -29
6 -2 1 -3 -11 -3 -13 1 -23 5 -23 9 0 4 -4 8 -10 8 -5 0 -31 15 -57 34 -55 38
-106 55 -97 32 3 -8 15 -17 27 -20 23 -5 80 -53 86 -71 2 -5 7 -20 12 -33 6
-15 5 -31 -2 -44 -8 -14 -8 -23 0 -31 8 -8 11 -8 11 0 0 7 24 37 53 69 28 31
58 67 66 79 8 13 26 29 39 35 23 10 22 7 -11 -33 -38 -47 -126 -175 -128 -186
-3 -28 -10 -44 -28 -70 -12 -16 -21 -35 -21 -43 0 -8 -7 -23 -15 -34 -21 -27
-19 -78 4 -98 11 -10 25 -15 30 -11 6 3 11 2 11 -2 0 -5 17 -9 38 -10 73 -2
103 -10 180 -49 106 -54 224 -171 329 -329 137 -206 208 -327 205 -347 -4 -20
32 -124 50 -145 6 -7 7 -13 3 -13 -4 0 -2 -7 5 -15 7 -8 9 -15 4 -15 -5 0 -2
-5 6 -10 8 -5 10 -10 3 -10 -6 0 -10 -8 -8 -17 2 -10 4 -18 5 -18 2 0 4 -16 5
-36 1 -20 6 -42 10 -49 11 -17 -64 -9 -210 25 -124 28 -367 54 -519 56 -69 1
-91 4 -71 9 17 4 46 14 65 23 58 25 169 39 270 35 103 -4 181 -31 237 -82 39
-36 40 -24 5 31 -77 119 -174 171 -331 177 -130 5 -422 -50 -470 -88 -42 -33
-45 -112 -5 -122 32 -8 30 -20 -3 -29 -16 -3 -57 -19 -93 -35 -105 -46 -131
-47 -203 -12 -79 39 -136 90 -116 103 20 12 16 100 -6 133 -10 15 -32 33 -49
41 -17 8 -55 28 -83 44 -29 16 -53 27 -53 25 0 -2 -14 3 -31 12 -54 27 -122
44 -185 44 -50 0 -68 -5 -103 -28 -46 -31 -92 -97 -84 -121 4 -13 2 -13 -6 1
-11 16 -9 28 41 185 11 35 24 65 29 68 5 4 9 15 9 26 0 11 4 17 10 14 6 -3 7
1 4 9 -3 9 -1 16 5 16 6 0 11 9 11 19 0 11 11 33 25 49 13 16 22 31 20 34 -3
2 11 23 30 45 19 23 35 44 35 48 0 4 17 23 39 43 95 91 131 123 131 116 0 -4
9 3 19 15 11 13 25 20 31 16 6 -3 9 -1 8 7 -2 7 4 14 12 14 8 1 22 2 30 3 12
1 12 3 2 9 -9 6 -5 12 13 20 15 7 24 8 20 2 -7 -12 -3 -12 19 -4 9 3 13 11 9
17 -3 5 -2 7 4 4 11 -7 96 16 88 24 -8 9 62 27 150 39 117 16 165 17 207 4 40
-14 78 -8 78 10 0 7 -21 23 -47 37 -43 21 -61 24 -163 24 -95 0 -127 -4 -185
-24 -121 -41 -280 -130 -350 -195 -17 -16 -44 -40 -61 -55 -16 -15 -58 -64
-93 -108 -35 -45 -70 -84 -78 -87 -8 -3 -12 -10 -9 -15 8 -12 -49 -113 -59
-104 -4 5 -5 3 -1 -4 4 -7 -10 -45 -31 -85 -45 -89 -80 -171 -89 -210 l-6 -29
-74 3 -74 2 0 29 c0 49 48 268 80 368 125 383 424 734 774 904 149 73 284 113
431 129 45 4 193 -2 270 -11z m390 -49 c94 -23 253 -106 336 -177 82 -70 193
-197 258 -297 94 -142 178 -359 220 -567 23 -110 65 -460 81 -663 35 -458 62
-835 80 -1090 11 -162 25 -333 31 -380 46 -375 70 -506 149 -815 28 -107 50
-198 50 -201 0 -3 -11 7 -24 21 -21 23 -28 25 -46 15 -19 -10 -27 -8 -54 17
-17 15 -35 32 -41 36 -6 5 -3 5 7 2 13 -5 15 -2 11 14 -3 13 -1 21 6 21 7 0
10 -4 6 -9 -3 -6 4 -15 15 -21 16 -9 20 -8 20 5 0 9 -4 14 -9 11 -5 -3 -11 1
-15 9 -3 8 -1 17 5 21 6 3 3 11 -7 19 -11 7 -15 19 -11 29 4 11 3 15 -4 11 -6
-4 -7 -19 -4 -35 5 -22 1 -31 -17 -44 -21 -15 -23 -15 -29 1 -3 10 -2 21 3 24
13 9 -9 22 -22 14 -6 -4 -8 6 -6 25 2 22 -2 33 -15 41 -11 5 -19 20 -19 34 0
14 -4 25 -10 25 -5 0 -13 12 -16 28 -4 15 -15 38 -24 52 -9 14 -15 30 -13 37
8 24 -17 23 -27 -1 -7 -19 -3 -45 15 -105 13 -44 29 -89 35 -101 6 -11 10 -29
8 -38 -3 -14 -6 -13 -25 7 -13 14 -26 20 -34 16 -8 -5 -10 -4 -5 3 4 7 -6 29
-23 49 -16 21 -42 62 -56 91 -14 29 -30 50 -36 47 -5 -3 -6 0 -4 8 7 17 -69
179 -80 170 -4 -5 -6 4 -3 19 4 19 1 25 -9 21 -8 -3 -13 3 -14 18 -1 16 -3 18
-6 7 -2 -9 4 -32 13 -50 10 -18 17 -36 16 -40 -1 -4 10 -38 24 -75 14 -38 27
-72 28 -78 2 -5 6 -17 9 -25 25 -60 26 -68 7 -63 -12 3 -16 11 -13 24 3 11 0
19 -6 19 -7 0 -9 -4 -6 -10 3 -5 1 -10 -5 -10 -11 0 -35 48 -31 63 1 5 -3 6
-8 3 -23 -15 -134 267 -167 425 -10 46 -23 88 -28 92 -8 6 -7 10 1 13 13 6 7
72 -8 88 -5 6 -9 17 -9 25 0 11 3 12 8 4 4 -6 7 12 7 40 1 116 10 257 18 257
5 0 6 3 3 8 -2 4 2 15 9 25 9 13 15 15 20 6 4 -6 1 -15 -6 -20 -10 -6 -11 -9
-1 -9 8 0 10 -8 6 -26 -5 -20 -4 -25 5 -20 8 6 10 0 5 -18 -4 -17 -2 -26 6
-26 7 0 9 -8 5 -22 -5 -16 -4 -20 3 -13 6 6 16 71 22 145 9 113 55 366 76 420
5 12 8 11 14 -5 8 -18 9 -18 9 4 1 13 4 21 7 18 9 -9 11 -228 2 -233 -3 -2 -4
-13 -1 -25 10 -36 21 -6 27 71 3 41 10 98 16 125 6 28 13 65 16 83 4 18 11 35
15 38 5 3 9 16 9 29 0 13 5 27 11 31 6 3 9 17 6 30 -2 13 0 24 4 24 5 0 9 9 9
19 0 11 4 22 8 25 4 2 8 -23 8 -57 1 -34 2 -87 4 -117 l2 -55 8 40 c8 44 25
404 24 501 -1 55 -25 154 -44 179 -11 14 -36 131 -55 250 -38 241 -71 389
-105 470 -5 11 -11 33 -15 49 -3 16 -13 39 -21 50 -14 20 -15 20 -8 -9 4 -16
10 -32 14 -35 3 -3 7 -14 7 -25 1 -11 13 -74 27 -140 14 -66 25 -133 25 -150
-1 -24 -3 -25 -6 -7 -2 12 -9 20 -14 17 -5 -4 -9 5 -9 19 0 14 -4 26 -9 26 -5
0 -25 33 -45 73 -19 39 -47 85 -61 101 -14 16 -25 33 -25 38 0 4 -5 8 -11 8
-7 0 -9 -10 -5 -27 4 -16 11 -44 15 -63 5 -19 16 -52 25 -72 26 -59 20 -73
-14 -38 -16 17 -30 35 -30 41 0 5 -13 24 -30 42 -16 18 -30 38 -30 45 0 6 -4
12 -9 12 -4 0 -20 18 -35 40 -16 24 -31 38 -38 34 -6 -4 -8 -3 -4 4 8 13 -10
26 -24 17 -6 -4 -6 -10 1 -18 23 -27 179 -283 179 -295 0 -2 9 -17 21 -33 14
-19 22 -47 23 -78 0 -27 4 -44 7 -39 4 6 9 6 14 -2 4 -7 2 -16 -5 -20 -9 -6
-7 -10 9 -15 22 -7 27 -20 12 -29 -4 -3 -6 -18 -3 -32 3 -19 1 -25 -7 -20 -6
4 -11 16 -11 27 0 11 -3 18 -7 16 -5 -3 -19 10 -33 29 -14 19 -40 52 -58 72
-18 20 -60 72 -93 114 -42 52 -66 75 -77 71 -10 -4 -13 -1 -10 8 2 7 -4 23
-15 34 -32 33 -77 108 -77 128 0 11 -4 15 -12 11 -8 -5 -9 -2 -5 10 4 10 3 15
-3 11 -11 -7 -32 29 -22 40 4 5 1 5 -5 1 -12 -7 -18 5 -14 27 1 5 -3 6 -8 3
-11 -7 -42 34 -35 46 3 4 -2 8 -11 8 -10 0 -15 6 -12 13 3 8 1 20 -5 28 -8 11
-9 10 -4 -4 3 -11 2 -16 -4 -12 -6 3 -10 10 -10 14 0 11 -73 94 -134 153 -62
62 -181 135 -254 159 -31 10 -50 18 -42 19 11 0 10 4 -5 12 -18 11 -15 14 30
24 l50 11 -45 10 c-26 6 -52 6 -62 1 -12 -5 -18 -5 -18 2 0 5 3 11 8 11 4 1
21 4 37 7 53 10 149 4 193 -12 60 -22 52 -11 -15 20 -38 17 -79 27 -121 29
-34 1 -66 6 -70 10 -4 5 -2 5 5 1 7 -4 17 2 23 14 6 11 18 20 26 20 8 0 25 6
37 13 12 6 54 17 92 23 l70 10 -50 13 c-27 7 -65 15 -83 18 -40 7 -37 25 7 34
17 4 35 10 39 14 4 4 -8 4 -27 0 -26 -5 -32 -4 -29 6 6 17 152 48 192 41 20
-3 27 -2 22 6 -4 7 -29 11 -57 10 -28 0 -55 4 -62 11 -8 8 -8 11 1 11 7 0 12
4 12 9 0 6 -12 6 -32 0 -17 -5 -33 -7 -35 -5 -7 7 78 36 88 31 5 -4 9 -1 9 4
0 6 17 12 38 12 25 1 29 3 12 6 -14 2 -34 8 -45 13 -11 5 -35 11 -54 12 -43 4
-55 28 -14 29 24 0 25 1 8 9 -16 6 -10 9 25 12 61 6 142 -1 215 -18z m-355
-234 c0 -5 -5 -10 -11 -10 -5 0 -7 5 -4 10 3 6 8 10 11 10 2 0 4 -4 4 -10z
m-1137 -1113 c18 -8 38 -12 46 -9 9 3 11 0 6 -8 -6 -10 -4 -12 8 -7 10 3 17 2
17 -3 0 -6 9 -10 20 -10 11 0 20 -5 20 -11 0 -12 17 -30 45 -48 l20 -12 -20 5
c-96 24 -203 46 -269 57 -56 9 -74 15 -60 20 13 5 14 8 4 9 -12 0 -11 4 4 15
25 19 116 20 159 2z m877 -207 c-8 -5 -22 -9 -30 -9 -10 0 -8 3 5 9 27 12 43
12 25 0z m-605 -84 c17 -13 28 -26 25 -29 -3 -3 -25 13 -50 35 -47 42 -27 37
25 -6z m804 20 c-8 -8 -88 -10 -95 -3 -4 4 17 7 46 7 29 0 51 -2 49 -4z m268
-22 c-3 -3 -12 -4 -19 -1 -8 3 -5 6 6 6 11 1 17 -2 13 -5z m391 -4 c6 0 11
-10 11 -22 -1 -15 -3 -17 -6 -7 -2 9 -18 21 -36 28 -20 7 -23 9 -7 6 14 -3 31
-5 38 -5z m-1533 -16 c32 -21 32 -34 1 -34 -22 0 -36 16 -36 41 0 13 7 11 35
-7z m-155 -33 c0 -72 78 -132 153 -117 35 7 67 32 67 53 0 21 16 15 28 -12 9
-20 8 -26 -5 -33 -13 -8 -9 -12 20 -21 20 -7 41 -10 47 -6 19 12 10 -45 -15
-95 -25 -49 -87 -120 -105 -120 -6 0 -10 18 -10 40 0 31 -5 43 -24 55 -21 14
-35 14 -108 4 -80 -12 -87 -11 -130 9 -33 17 -57 40 -93 92 -55 82 -75 96
-114 82 l-28 -10 11 47 c7 29 12 38 14 26 2 -11 9 -24 14 -30 7 -7 8 -3 4 10
-3 11 -1 27 5 35 8 12 9 11 7 -5 -2 -15 3 -20 22 -21 52 -1 57 -3 40 -14 -12
-8 -10 -10 9 -10 19 0 22 -4 18 -20 -4 -17 -2 -20 12 -15 15 4 18 0 16 -20 -3
-22 0 -24 22 -19 20 5 24 4 18 -6 -6 -10 -4 -12 8 -7 10 3 17 3 17 -1 0 -4 20
-8 45 -9 25 -1 45 0 45 2 0 2 -20 16 -44 31 -44 28 -63 58 -45 70 6 3 9 13 8
22 -3 31 1 41 19 45 46 12 52 8 52 -32z m1050 30 c0 -5 -25 -17 -56 -26 -60
-17 -143 -84 -170 -137 -17 -32 -16 -33 54 -42 42 -6 59 7 23 19 -33 10 -32
32 5 64 19 17 38 31 42 32 4 0 14 2 23 4 13 2 18 -8 23 -44 16 -119 164 -150
226 -48 11 18 20 41 21 52 1 11 5 4 9 -15 7 -27 5 -39 -7 -52 -11 -12 -12 -18
-4 -18 21 0 1 -19 -41 -41 -30 -15 -37 -24 -29 -32 8 -8 14 -8 22 0 7 7 21 8
40 3 17 -5 27 -5 24 0 -7 11 35 41 47 34 4 -3 8 -1 8 4 0 5 19 14 43 21 23 7
50 17 59 22 10 5 26 9 35 9 15 0 16 2 3 10 -11 7 -5 9 23 7 l38 -2 -6 -45 c-8
-54 -19 -77 -29 -61 -14 22 -59 10 -123 -35 -94 -65 -126 -77 -211 -75 -53 0
-97 9 -158 30 -115 40 -142 32 -160 -51 -1 -5 -2 -18 -3 -30 -1 -21 -1 -21
-22 -2 -39 35 -68 99 -94 204 -30 126 -31 155 -5 198 22 36 40 42 37 12 -1
-14 -6 -19 -16 -15 -10 4 -9 -1 5 -16 10 -12 13 -19 7 -15 -9 5 -11 2 -7 -9 6
-14 8 -14 23 -1 13 12 20 13 29 4 9 -9 12 -9 12 0 0 7 8 12 17 12 13 0 14 -3
6 -11 -9 -9 -9 -15 0 -24 9 -9 16 -5 34 16 30 35 82 68 136 85 51 16 67 17 67
5z m1128 -54 c56 -51 67 -147 32 -282 -41 -160 -145 -332 -248 -411 l-33 -26
-24 26 c-45 49 -91 28 -97 -42 -1 -17 -6 -28 -11 -25 -5 3 -13 0 -17 -8 -7
-10 -12 -10 -23 -1 -7 7 -18 8 -22 4 -5 -4 -5 -2 -2 5 4 6 0 18 -8 26 -8 9
-15 25 -15 38 l0 22 -18 -24 c-10 -13 -27 -44 -39 -69 -78 -167 -107 -222
-144 -280 -43 -66 -176 -210 -194 -210 -5 0 -28 -16 -50 -35 -22 -19 -46 -33
-53 -30 -7 3 -11 1 -8 -4 8 -12 -224 -125 -364 -176 -220 -82 -358 -102 -492
-74 -67 14 -151 58 -203 107 -63 58 -237 260 -284 328 -104 155 -178 399 -210
695 -7 68 -7 68 13 51 11 -9 30 -28 42 -42 12 -14 48 -41 79 -60 46 -27 68
-34 109 -34 61 0 144 26 206 64 25 15 56 30 70 33 31 8 124 66 117 73 -3 3 3
15 13 27 11 12 26 31 34 42 14 19 15 19 11 -5 -5 -43 -30 -90 -76 -142 -23
-27 -59 -102 -59 -126 0 -31 62 -106 95 -115 17 -5 43 -12 58 -17 19 -6 42 -4
70 6 56 20 125 23 136 5 13 -21 73 -6 104 27 14 15 28 41 32 57 6 29 5 28 -15
-7 -23 -43 -51 -49 -84 -19 -36 33 -94 36 -149 7 -47 -25 -77 -26 -77 -1 0 8
-5 17 -12 21 -7 5 -9 2 -4 -7 6 -10 4 -10 -6 1 -7 8 -27 23 -45 33 -29 16 -33
16 -47 1 -14 -14 -15 -11 -12 34 4 49 10 61 80 160 32 47 86 192 86 232 0 35
19 58 56 69 57 16 75 -2 114 -119 61 -180 134 -284 231 -329 31 -15 74 -42 95
-59 78 -65 261 -111 357 -90 121 25 232 110 283 214 22 46 25 62 20 116 -3 35
-6 71 -6 81 -2 30 60 153 69 139 6 -10 15 -10 35 -2 41 15 116 13 116 -4 0 -7
10 -26 22 -42 13 -15 17 -24 9 -20 -9 6 -12 5 -9 -4 2 -7 14 -17 26 -21 19 -7
25 -4 35 19 6 15 16 30 22 34 5 4 6 8 1 8 -5 0 -1 9 9 20 10 11 14 20 10 20
-15 0 113 116 147 133 40 21 83 15 116 -16z m-2088 -33 c0 -6 10 -14 22 -18
16 -4 20 -8 12 -16 -24 -24 -96 42 -78 71 6 10 44 -21 44 -37z m1071 1 c-1
-15 -24 -12 -29 3 -3 9 2 13 12 10 10 -1 17 -7 17 -13z m346 -27 c-3 -7 -5 -2
-5 12 0 14 2 19 5 13 2 -7 2 -19 0 -25z m-1788 -63 c0 -5 -4 -3 -9 5 -5 8 -9
22 -9 30 0 16 17 -16 18 -35z m36 35 c-3 -5 -14 -10 -23 -9 -14 0 -13 2 3 9
27 11 27 11 20 0z m1298 -22 c-4 -18 -2 -20 5 -9 8 12 14 12 25 3 8 -7 21 -10
29 -7 9 4 18 -1 22 -11 4 -12 2 -15 -9 -10 -8 3 -15 1 -15 -4 0 -13 -41 -3
-58 14 -8 8 -12 22 -9 30 9 24 16 19 10 -6z m-1242 -37 c62 -90 140 -123 242
-101 75 15 103 3 105 -44 1 -20 -3 -36 -8 -36 -6 0 -10 -8 -11 -17 0 -14 -3
-12 -12 6 -9 19 -9 25 1 29 17 5 15 42 -2 42 -8 0 -17 -4 -21 -10 -3 -5 -11
-7 -18 -5 -42 12 -77 13 -74 2 1 -8 -15 -12 -55 -12 -42 0 -54 -3 -47 -11 6
-8 6 -14 0 -18 -5 -3 -11 0 -14 6 -2 7 -8 10 -12 6 -4 -4 7 -16 25 -26 43 -27
23 -36 -48 -22 -63 13 -111 36 -157 73 -26 22 -28 27 -17 48 7 13 11 17 8 7
-3 -9 3 -23 12 -31 23 -20 62 -31 62 -18 0 6 8 7 17 4 11 -4 7 6 -13 30 -16
20 -32 37 -35 37 -3 0 -4 13 -1 29 3 19 9 28 20 27 18 -3 30 -26 13 -26 -6 0
-3 -9 6 -20 18 -20 18 -20 25 1 6 14 2 29 -10 47 -30 43 -34 52 -24 52 5 0 25
-22 43 -49z m-124 17 c-3 -8 -6 -5 -6 6 -1 11 2 17 5 13 3 -3 4 -12 1 -19z
m40 -30 c-3 -8 -6 -5 -6 6 -1 11 2 17 5 13 3 -3 4 -12 1 -19z m-50 -10 c-3 -8
-6 -5 -6 6 -1 11 2 17 5 13 3 -3 4 -12 1 -19z m-57 -43 c0 -5 -5 -3 -10 5 -5
8 -10 20 -10 25 0 6 5 3 10 -5 5 -8 10 -19 10 -25z m50 -70 c42 -48 42 -48 6
-15 -21 19 -42 44 -48 55 -6 11 -9 18 -6 15 2 -3 24 -27 48 -55z m1764 30 c-4
-10 -1 -14 7 -12 8 2 11 2 7 0 -5 -3 -8 -11 -8 -19 0 -9 -5 -12 -11 -8 -8 4
-9 -4 -5 -27 7 -34 7 -34 -8 -9 l-15 25 -2 -30 c-1 -16 -1 -42 -1 -56 1 -37
-42 -74 -108 -93 -71 -21 -277 -17 -330 6 l-35 15 30 0 c17 0 39 3 50 7 14 6
16 5 6 -2 -8 -6 -9 -12 -3 -16 6 -3 17 1 25 9 9 8 27 15 40 15 13 0 35 8 48
19 13 10 33 21 44 24 11 2 -2 5 -30 5 -27 0 -45 -2 -38 -4 18 -8 4 -34 -18
-34 -12 0 -16 5 -13 15 5 11 -1 15 -22 15 -21 0 -25 -3 -15 -9 11 -7 10 -10
-5 -13 -10 -2 -26 -1 -34 3 -8 4 -28 11 -44 15 -16 5 -32 16 -34 24 -4 11 -1
10 12 -3 23 -22 39 -22 61 3 18 20 18 21 -3 27 -12 3 -22 9 -22 14 0 14 -64
15 -76 0 -12 -15 -34 -7 -34 13 0 7 10 18 23 25 19 10 36 7 112 -19 109 -37
201 -45 259 -23 22 9 73 38 111 64 76 52 87 57 79 34z m22 -62 c-8 -15 -15
-25 -16 -21 0 12 23 58 27 54 3 -2 -2 -17 -11 -33z m-1399 11 c-3 -3 -12 -4
-19 -1 -8 3 -5 6 6 6 11 1 17 -2 13 -5z m702 -69 c15 -19 15 -19 -2 -6 -18 15
-47 63 -47 78 1 4 8 -5 17 -22 8 -16 23 -39 32 -50z m784 26 c-6 -3 -20 -24
-31 -46 -12 -22 -21 -36 -22 -31 0 17 54 108 58 96 3 -7 0 -15 -5 -19z m-1503
9 c-22 -7 -20 -8 15 -9 l40 -1 -29 -15 c-17 -9 -48 -14 -72 -13 -40 3 -41 4
-25 19 19 18 44 27 76 27 16 0 15 -2 -5 -8z m1390 -29 c0 -6 -4 -12 -8 -15 -5
-3 -9 1 -9 9 0 8 4 15 9 15 4 0 8 -4 8 -9z m-515 -71 c9 7 15 8 15 2 0 -19
-33 -23 -49 -5 -15 16 -15 16 2 4 14 -11 20 -11 32 -1z m75 -5 c0 -2 -6 -5
-13 -8 -8 -3 -14 1 -14 8 0 7 6 11 14 8 7 -3 13 -6 13 -8z m495 -5 c-3 -5 -12
-10 -18 -10 -7 0 -6 4 3 10 19 12 23 12 15 0z m-1555 -37 c0 -8 -75 -11 -84
-3 -2 3 16 6 40 8 24 1 44 -1 44 -5z m1526 -5 c4 -7 3 -10 -1 -5 -5 4 -20 -3
-34 -15 l-26 -23 24 28 c28 31 28 31 37 15z m10 -33 c-1 -8 -5 -17 -8 -21 -5
-4 -4 16 1 34 3 9 9 -1 7 -13z m-71 -25 c-3 -5 -12 -10 -18 -10 -7 0 -6 4 3
10 19 12 23 12 15 0z m-129 -72 c4 -6 3 -8 -2 -5 -5 3 -42 -1 -82 -8 -46 -9
-81 -11 -95 -5 -17 7 -10 9 33 10 30 1 64 5 75 10 29 12 63 12 71 -2z m41 6
c-3 -3 -12 -4 -19 -1 -8 3 -5 6 6 6 11 1 17 -2 13 -5z m592 -113 c68 -95 73
-257 11 -355 -16 -25 -39 -51 -52 -59 -31 -20 -82 -31 -73 -17 5 7 -2 9 -20 4
-20 -5 -26 -3 -23 6 2 7 19 14 37 15 38 3 87 37 83 57 -1 7 4 6 12 -5 13 -16
15 -15 34 15 21 33 20 55 -1 28 -26 -33 -35 -21 -29 38 13 116 1 221 -29 264
-24 35 -24 38 5 38 16 0 32 -11 45 -29z m-112 -67 c-3 -3 -12 -4 -19 -1 -8 3
-5 6 6 6 11 1 17 -2 13 -5z m-88 -198 c-9 -8 -10 -8 -4 3 4 8 2 17 -6 21 -10
7 -10 12 2 26 13 16 14 15 17 -11 2 -15 -2 -33 -9 -39z m135 -91 c-4 -8 -11
-15 -16 -15 -6 0 -5 6 2 15 7 8 14 15 16 15 2 0 1 -7 -2 -15z m-41 -22 c-7 -2
-19 -2 -25 0 -7 3 -2 5 12 5 14 0 19 -2 13 -5z m-2136 -310 c8 -21 17 -58 19
-81 1 -24 10 -52 20 -63 16 -18 16 -26 -4 -161 -12 -79 -31 -195 -42 -258 -11
-63 -20 -129 -20 -147 0 -17 -4 -34 -9 -37 -14 -9 -26 149 -25 309 2 168 28
475 41 475 2 0 11 -17 20 -37z m2179 -14 c-4 -24 -2 -39 4 -39 5 0 13 -18 16
-40 6 -39 18 -52 27 -27 2 6 2 1 -1 -13 -5 -29 -5 -35 1 -75 2 -16 8 -57 12
-90 4 -33 13 -87 21 -120 17 -75 17 -80 0 -66 -11 9 -15 9 -19 -1 -4 -9 -6 -7
-6 4 -1 9 4 20 9 23 6 3 10 12 10 18 0 7 -4 7 -9 -2 -8 -12 -11 -10 -19 10
-34 87 -52 163 -53 219 0 8 -5 61 -11 118 -10 105 -7 139 13 126 7 -4 9 -21 5
-45z m-811 -119 c-3 -5 -11 -10 -16 -10 -6 0 -7 5 -4 10 3 6 11 10 16 10 6 0
7 -4 4 -10z m-65 -24 c0 -3 -4 -8 -10 -11 -5 -3 -10 -1 -10 4 0 6 5 11 10 11
6 0 10 -2 10 -4z m-240 -128 c0 -4 -4 -8 -9 -8 -6 0 -12 4 -15 8 -3 5 1 9 9 9
8 0 15 -4 15 -9z m-330 -163 c0 -8 -4 -15 -10 -15 -5 0 -10 7 -10 15 0 8 5 15
10 15 6 0 10 -7 10 -15z m35 -13 c-3 -3 -11 0 -18 7 -9 10 -8 11 6 5 10 -3 15
-9 12 -12z m-495 -202 c0 -5 -4 -10 -10 -10 -5 0 -10 5 -10 10 0 6 5 10 10 10
6 0 10 -4 10 -10z m1927 -392 c-3 -8 -6 -5 -6 6 -1 11 2 17 5 13 3 -3 4 -12 1
-19z m740 7 c0 -8 -4 -12 -9 -9 -5 3 -6 10 -3 15 9 13 12 11 12 -6z m-938 -36
c-8 -5 -18 -8 -24 -8 -5 0 -4 3 3 6 6 2 9 10 6 15 -4 7 -2 8 4 4 7 -4 12 -1
13 6 0 10 2 10 6 -1 3 -7 -1 -17 -8 -22z m998 -21 c-3 -8 -6 -5 -6 6 -1 11 2
17 5 13 3 -3 4 -12 1 -19z m-1044 -21 c3 -8 -1 -14 -8 -14 -7 0 -11 6 -8 14 3
7 6 13 8 13 2 0 5 -6 8 -13z m-1640 -112 c-3 -9 -8 -14 -10 -11 -3 3 -2 9 2
15 9 16 15 13 8 -4z"/>
<path d="M3015 6093 c-27 -8 -62 -17 -78 -20 -15 -3 -30 -10 -33 -15 -7 -10
64 0 81 12 19 14 55 18 55 7 0 -8 3 -7 9 1 4 7 19 11 32 9 13 -2 18 -2 12 0
-7 3 -13 9 -13 14 0 11 -3 11 -65 -8z"/>
<path d="M2771 6043 c-13 -10 -32 -26 -42 -35 -10 -9 -19 -13 -21 -8 -4 11
-98 -77 -98 -91 0 -6 -4 -7 -10 -4 -5 3 -10 2 -10 -4 0 -5 -9 -13 -21 -16 -11
-4 -18 -12 -16 -18 6 -19 22 -18 45 3 11 11 26 20 32 20 6 0 8 5 4 11 -4 8 1
9 16 4 15 -5 20 -4 16 4 -4 6 -1 11 6 11 18 0 114 87 110 101 -1 6 2 8 8 4 6
-3 8 -11 5 -16 -10 -15 8 -10 45 12 32 20 33 23 15 30 -33 13 -60 10 -84 -8z
m62 -10 c-7 -2 -19 -2 -25 0 -7 3 -2 5 12 5 14 0 19 -2 13 -5z"/>
<path d="M3166 5961 c-4 -5 19 -17 49 -27 48 -14 60 -24 87 -66 30 -46 33 -48
41 -26 13 35 -10 65 -76 98 -62 31 -92 37 -101 21z m84 -21 c8 -5 11 -10 5
-10 -5 0 -17 5 -25 10 -8 5 -10 10 -5 10 6 0 17 -5 25 -10z"/>
<path d="M2838 5943 c6 -2 18 -2 25 0 6 3 1 5 -13 5 -14 0 -19 -2 -12 -5z"/>
<path d="M3340 5940 c0 -5 5 -10 10 -10 6 0 10 5 10 10 0 6 -4 10 -10 10 -5 0
-10 -4 -10 -10z"/>
<path d="M2769 5925 c-24 -8 -29 -14 -19 -18 8 -4 5 -4 -8 -1 -39 9 -238 -130
-349 -244 -128 -132 -133 -138 -187 -209 -47 -62 -166 -285 -166 -310 0 -7 7
-13 15 -13 10 0 12 6 8 18 -6 15 -5 15 10 3 10 -8 17 -9 17 -3 0 6 -4 14 -10
17 -20 12 -9 25 20 25 17 0 30 5 30 11 0 5 4 8 9 5 5 -4 7 3 4 14 -5 19 -6 19
-24 -3 -20 -22 -20 -22 -2 13 29 56 86 140 95 140 14 0 9 -11 -22 -50 -16 -20
-26 -41 -22 -45 4 -5 1 -4 -7 0 -11 6 -13 4 -6 -11 10 -24 10 -65 -2 -73 -5
-3 -14 -18 -20 -33 -7 -16 -17 -28 -23 -28 -6 0 -9 -4 -6 -8 3 -5 -20 -65 -50
-135 -59 -139 -58 -137 -44 -137 6 0 10 9 10 19 0 11 4 22 9 26 5 3 17 28 26
55 15 47 130 247 180 315 31 43 40 59 27 51 -6 -3 -14 -2 -17 4 -4 6 -3 9 2 8
13 -3 53 13 53 22 0 5 12 23 27 41 23 27 24 30 6 21 -12 -7 -29 -23 -40 -37
-21 -29 -69 -44 -59 -19 3 9 9 27 12 40 7 28 66 90 94 99 11 4 20 13 20 21 0
8 6 14 14 14 8 0 18 9 21 20 3 11 14 20 23 21 14 0 13 2 -3 9 l-20 9 20 1 c17
2 16 3 -5 10 -23 7 -23 8 -4 9 13 1 24 9 27 22 3 12 10 18 16 14 6 -3 11 0 11
8 0 15 51 67 66 67 6 0 28 15 50 33 49 40 101 77 110 77 3 0 33 17 65 37 41
25 58 41 54 51 -4 12 -3 12 8 3 10 -7 23 -8 38 -3 22 9 21 10 -13 13 -20 3
-51 0 -69 -6z m-539 -610 c0 -8 -5 -15 -10 -15 -6 0 -15 -10 -20 -22 -7 -19
-9 -20 -9 -5 -1 23 17 57 29 57 6 0 10 -7 10 -15z"/>
<path d="M2488 5812 c-36 -37 -43 -48 -28 -48 10 0 16 4 14 8 -3 4 8 15 23 25
44 29 62 46 57 55 -9 14 -18 9 -66 -40z"/>
<path d="M3277 5773 c4 -34 -12 -44 -33 -23 -12 12 -125 43 -131 36 -3 -3 13
-10 35 -15 23 -7 56 -28 80 -51 43 -44 52 -48 52 -25 0 8 5 24 10 35 6 11 15
29 20 40 15 29 12 36 -13 36 -21 0 -23 -4 -20 -33z"/>
<path d="M2309 5623 l-24 -28 28 24 c25 23 32 31 24 31 -2 0 -14 -12 -28 -27z"/>
<path d="M2430 5509 c0 -5 5 -7 10 -4 6 3 10 8 10 11 0 2 -4 4 -10 4 -5 0 -10
-5 -10 -11z"/>
<path d="M2367 5451 c-4 -17 -3 -21 5 -13 5 5 8 16 6 23 -3 8 -7 3 -11 -10z"/>
<path d="M2271 5404 c0 -11 3 -14 6 -6 3 7 2 16 -1 19 -3 4 -6 -2 -5 -13z"/>
<path d="M2140 5255 c0 -5 5 -17 10 -25 5 -8 10 -10 10 -5 0 6 -5 17 -10 25
-5 8 -10 11 -10 5z"/>
<path d="M2106 5171 c-4 -7 -5 -15 -2 -18 9 -9 19 4 14 18 -4 11 -6 11 -12 0z"/>
<path d="M2026 5103 c-4 -9 -3 -19 0 -22 4 -3 9 0 12 8 4 11 6 11 13 0 7 -11
9 -11 9 -1 0 7 5 10 11 6 7 -4 10 -1 7 6 -6 20 -45 22 -52 3z"/>
<path d="M2006 5055 c-3 -9 -2 -14 3 -11 5 3 12 -1 15 -10 4 -9 9 -14 12 -11
3 3 -1 15 -9 27 -12 18 -15 19 -21 5z"/>
<path d="M1995 4990 c-4 -12 -5 -24 -2 -27 3 -2 8 5 12 17 4 12 5 24 2 27 -3
2 -8 -5 -12 -17z"/>
<path d="M4084 4889 c-4 -7 -3 -9 4 -5 6 4 12 -3 14 -16 3 -19 4 -20 10 -6 9
21 -16 45 -28 27z"/>
<path d="M3633 6123 c9 -2 25 -2 35 0 9 3 1 5 -18 5 -19 0 -27 -2 -17 -5z"/>
<path d="M3478 5798 c9 -9 15 -9 24 0 9 9 7 12 -12 12 -19 0 -21 -3 -12 -12z"/>
<path d="M4117 5283 c-3 -5 3 -22 14 -39 10 -16 19 -23 19 -16 0 7 6 10 13 7
6 -4 5 -1 -4 7 -8 7 -20 21 -26 32 -6 10 -13 14 -16 9z"/>
<path d="M4300 5231 c0 -6 5 -13 10 -16 6 -3 10 1 10 9 0 9 -4 16 -10 16 -5 0
-10 -4 -10 -9z"/>
<path d="M4061 5080 c12 -22 24 -38 26 -36 4 4 -37 76 -44 76 -2 0 6 -18 18
-40z"/>
<path d="M4372 4710 c7 -10 14 -18 15 -16 6 6 -9 36 -18 36 -5 0 -4 -9 3 -20z"/>
<path d="M4662 3685 c0 -16 2 -22 5 -12 2 9 2 23 0 30 -3 6 -5 -1 -5 -18z"/>
<path d="M4530 3370 c0 -5 5 -10 11 -10 5 0 7 5 4 10 -3 6 -8 10 -11 10 -2 0
-4 -4 -4 -10z"/>
<path d="M4397 3103 c-4 -3 -7 -11 -7 -17 0 -6 5 -5 12 2 6 6 9 14 7 17 -3 3
-9 2 -12 -2z"/>
<path d="M4460 2651 c0 -6 4 -13 10 -16 6 -3 7 1 4 9 -7 18 -14 21 -14 7z"/>
<path d="M4818 2540 c4 -14 6 -45 6 -70 -1 -31 1 -39 6 -25 6 14 8 3 8 -31 0
-52 17 -94 38 -94 14 0 7 37 -9 58 -6 8 -10 27 -9 42 1 16 -2 31 -8 35 -5 3
-10 16 -10 28 -1 12 -7 36 -15 52 -11 23 -13 24 -7 5z"/>
<path d="M4878 2256 c2 -22 13 -48 23 -60 19 -20 19 -20 19 7 0 15 -4 27 -10
27 -5 0 -10 7 -10 15 0 8 -4 15 -9 15 -5 0 -12 8 -14 18 -2 9 -2 -1 1 -22z"/>
<path d="M4987 2044 c5 -13 1 -15 -23 -12 -16 3 -23 3 -16 1 7 -3 10 -8 7 -13
-3 -4 3 -14 12 -21 13 -11 17 -11 20 -1 3 6 9 10 14 6 5 -3 9 1 9 10 0 22 -11
46 -21 46 -4 0 -6 -7 -2 -16z"/>
<path d="M4475 4343 c-43 -22 -70 -49 -127 -126 l-51 -68 6 -65 c9 -91 1 -116
-54 -180 -27 -30 -47 -59 -44 -64 7 -11 45 -1 77 22 14 10 39 18 55 18 30 0
69 33 92 77 15 30 14 117 -3 156 -7 18 -25 41 -40 50 -33 22 -34 37 -2 31 34
-6 77 13 83 36 3 11 11 20 17 20 26 0 41 -52 41 -139 0 -84 -4 -98 -48 -186
l-10 -20 21 20 c11 11 19 22 19 25 -1 3 7 18 17 33 57 85 95 302 62 352 -19
30 -64 33 -111 8z"/>
<path d="M2600 3560 c-56 -23 -77 -24 -96 -5 -20 19 -33 19 -41 -1 -4 -11 1
-22 13 -30 58 -41 78 -63 111 -123 58 -106 146 -159 267 -160 53 -1 81 5 127
25 56 25 65 36 59 74 -3 24 -9 25 -42 5 -18 -10 -33 -14 -35 -9 -2 6 -30 9
-63 8 -36 -1 -60 2 -60 8 0 6 -6 5 -15 -2 -9 -8 -15 -8 -15 -2 0 6 -12 12 -27
14 -43 5 -39 25 7 30 31 3 40 0 41 -12 0 -13 1 -13 7 0 4 9 22 16 42 17 72 4
147 5 217 5 74 -1 176 20 200 40 12 9 12 14 0 25 -12 13 -21 12 -62 -1 -40
-14 -54 -15 -84 -4 -20 6 -41 11 -47 10 -6 -1 -39 7 -74 18 -34 11 -71 20 -82
20 -11 0 -16 5 -13 10 7 11 -18 14 -77 11 -24 -2 -58 7 -92 23 -63 30 -103 31
-166 6z"/>
<path d="M2240 4190 c0 -5 5 -10 11 -10 5 0 7 5 4 10 -3 6 -8 10 -11 10 -2 0
-4 -4 -4 -10z"/>
<path d="M2240 4140 c0 -5 5 -10 10 -10 6 0 10 5 10 10 0 6 -4 10 -10 10 -5 0
-10 -4 -10 -10z"/>
<path d="M2215 4130 c3 -5 8 -10 11 -10 2 0 4 5 4 10 0 6 -5 10 -11 10 -5 0
-7 -4 -4 -10z"/>
<path d="M3786 4044 c-3 -9 -2 -22 2 -31 6 -10 9 -5 9 16 0 35 -2 38 -11 15z"/>
<path d="M3460 4040 c0 -5 5 -10 10 -10 6 0 10 5 10 10 0 6 -4 10 -10 10 -5 0
-10 -4 -10 -10z"/>
<path d="M3761 4034 c0 -11 3 -14 6 -6 3 7 2 16 -1 19 -3 4 -6 -2 -5 -13z"/>
<path d="M3769 4003 c-1 -5 -1 -12 0 -17 1 -5 -5 -6 -14 -2 -9 3 -28 3 -43 -1
-25 -6 -25 -6 -4 -14 28 -11 69 4 69 25 0 16 -6 22 -8 9z"/>
<path d="M3478 3953 c7 -3 16 -2 19 1 4 3 -2 6 -13 5 -11 0 -14 -3 -6 -6z"/>
<path d="M2405 4070 c-3 -5 -1 -10 4 -10 6 0 11 5 11 10 0 6 -2 10 -4 10 -3 0
-8 -4 -11 -10z"/>
<path d="M2060 6123 c0 -16 -9 -43 -20 -60 -23 -38 -23 -38 46 -16 42 13 59
14 78 5 31 -14 44 -56 25 -79 -18 -21 -71 -43 -104 -43 l-26 0 21 -28 c32 -44
37 -95 10 -122 -46 -46 -124 8 -129 90 -1 8 -12 -3 -24 -25 -17 -31 -31 -42
-61 -50 -35 -8 -40 -7 -58 15 -29 36 -20 69 32 108 25 19 47 38 48 43 2 5 -14
9 -36 9 -27 0 -47 7 -65 24 -17 16 -30 20 -39 14 -10 -6 -7 -14 14 -32 15 -13
33 -26 40 -28 9 -4 5 -13 -14 -33 -39 -39 -38 -87 2 -127 27 -27 36 -30 72
-25 22 3 48 12 56 21 13 13 18 11 44 -14 37 -37 89 -48 123 -26 43 28 52 72
30 144 -6 17 -3 22 9 22 26 0 65 30 82 61 31 60 -33 130 -105 116 -29 -6 -29
-5 -24 28 4 28 2 35 -11 35 -11 0 -16 -9 -16 -27z"/>
<path d="M4385 6109 c17 -55 53 -104 110 -146 101 -76 109 -76 154 -2 18 31
19 38 6 43 -10 4 -20 -6 -30 -32 -11 -25 -18 -33 -24 -24 -4 7 -14 10 -22 7
-8 -3 -23 2 -34 11 -11 8 -14 12 -6 8 9 -5 12 -3 7 5 -4 6 -11 9 -16 6 -11 -7
-78 60 -105 105 -25 42 -50 54 -40 19z"/>
<path d="M1920 6080 c0 -5 5 -10 10 -10 6 0 10 5 10 10 0 6 -4 10 -10 10 -5 0
-10 -4 -10 -10z"/>
<path d="M4453 6075 c0 -8 3 -13 5 -10 10 10 31 -17 25 -33 -6 -14 -5 -14 8
-3 13 13 12 17 -9 38 -27 27 -29 28 -29 8z"/>
<path d="M4556 6015 c13 -10 15 -14 5 -15 -8 0 -12 -2 -9 -5 3 -3 16 -1 29 4
18 7 20 10 6 10 -10 1 -15 6 -12 11 3 6 -4 10 -16 10 -22 0 -22 0 -3 -15z"/>
<path d="M4580 5986 c0 -2 7 -7 16 -10 8 -3 12 -2 9 4 -6 10 -25 14 -25 6z"/>
<path d="M1439 5823 c-9 -10 -21 -27 -27 -38 -6 -11 -12 -14 -12 -7 0 10 -7 9
-30 -3 -16 -9 -30 -19 -30 -23 0 -4 -10 -12 -22 -17 -13 -6 -28 -20 -34 -33
-6 -13 -13 -22 -15 -21 -7 2 -80 -43 -76 -47 2 -3 43 5 90 16 87 21 152 28
163 18 3 -3 46 -100 95 -214 50 -115 115 -264 145 -332 56 -124 61 -156 26
-166 -68 -20 -273 -75 -302 -81 -61 -12 -371 -95 -388 -105 -14 -8 -161 -49
-359 -100 -45 -11 -62 6 -104 107 -19 46 -36 83 -39 83 -8 0 -60 -85 -60 -98
0 -20 53 -137 77 -169 42 -58 0 -65 643 111 340 93 493 137 524 150 42 18 56
42 63 111 5 47 1 63 -35 141 -62 136 -155 349 -197 449 -45 110 -59 133 -90
145 l-24 9 20 58 c22 64 21 83 -2 56z m-140 -1047 c-2 -2 -56 -18 -119 -35
-63 -18 -124 -34 -135 -38 -11 -3 -16 -2 -12 3 9 10 221 71 251 73 11 0 17 -1
15 -3z"/>
<path d="M4977 5799 c-7 -24 -56 -232 -61 -264 -26 -141 -66 -450 -66 -513 1
-42 -4 -104 -10 -137 -28 -167 1 -217 186 -308 125 -62 273 -97 412 -97 120 0
134 10 198 145 31 63 66 123 78 132 12 10 41 60 64 112 47 104 48 95 -17 171
-24 27 -31 31 -31 16 0 -12 -5 -16 -16 -12 -12 5 -15 2 -10 -10 4 -10 -1 -25
-10 -35 -9 -10 -14 -25 -11 -34 4 -8 2 -15 -4 -15 -11 0 -33 -49 -30 -66 0 -6
-6 -17 -14 -24 -8 -7 -15 -20 -15 -29 0 -10 -10 -27 -23 -39 -20 -19 -31 -21
-97 -17 -156 9 -456 109 -507 169 -17 19 -17 20 0 7 9 -7 17 -12 18 -10 4 27
11 114 12 152 1 26 6 47 11 47 4 0 6 11 3 25 -2 14 -2 23 2 20 5 -5 27 102 57
278 4 20 8 37 11 37 2 0 36 -17 76 -37 67 -34 307 -116 316 -107 13 12 -35 38
-132 69 -125 41 -240 97 -309 152 -63 52 -71 71 -58 145 10 52 9 63 -4 76 -13
13 -16 13 -19 1z m6 -202 c3 -8 -1 -14 -8 -14 -7 0 -11 6 -8 14 3 7 6 13 8 13
2 0 5 -6 8 -13z m13 -39 c5 -7 2 -9 -9 -5 -11 4 -14 2 -10 -9 3 -7 1 -14 -4
-14 -5 0 -9 9 -10 20 -2 22 21 27 33 8z m-26 -48 c0 -5 -2 -10 -4 -10 -3 0 -8
5 -11 10 -3 6 -1 10 4 10 6 0 11 -4 11 -10z m-8 -49 c2 -17 0 -27 -5 -24 -5 3
-6 -3 -3 -15 4 -11 2 -23 -4 -27 -11 -7 -13 17 -4 64 8 39 11 39 16 2z m-8
-108 c-4 -16 -10 -32 -14 -38 -7 -11 -12 -45 -13 -88 0 -18 -3 -25 -9 -19 -12
12 11 154 26 164 16 11 17 10 10 -19z m-38 -222 c0 -35 -4 -55 -9 -48 -5 7 -6
-1 -3 -18 5 -22 4 -26 -4 -15 -5 8 -8 26 -6 40 3 14 7 42 11 63 3 20 7 37 9
37 1 0 2 -27 2 -59z m19 -121 c1 -8 6 -14 13 -12 7 1 12 -2 12 -8 0 -5 -2 -10
-5 -10 -12 0 -55 33 -55 42 0 16 35 4 35 -12z m110 -143 c143 -71 366 -127
510 -127 100 0 97 9 40 -115 -47 -103 -58 -110 -169 -109 -178 3 -405 79 -505
170 -61 55 -63 60 -46 171 8 54 15 102 15 106 0 4 24 -10 53 -32 28 -21 75
-50 102 -64z m645 -72 c-7 -8 -20 -15 -29 -15 -11 0 -8 5 9 14 33 19 35 19 20
1z"/>
<path d="M1233 5597 c-92 -23 -123 -35 -123 -46 0 -34 103 -271 117 -271 15 0
275 68 280 74 3 3 -11 45 -32 93 -62 144 -84 183 -103 182 -9 -1 -72 -15 -139
-32z"/>
<path d="M1055 5520 c-3 -5 16 -60 43 -122 27 -62 46 -117 42 -122 -9 -9 -206
-66 -231 -66 -9 0 -24 18 -34 43 -24 53 -22 50 -34 43 -10 -6 20 -90 39 -110
8 -8 235 46 273 66 9 5 17 17 17 27 0 34 -90 251 -105 251 -2 0 -6 -4 -10 -10z"/>
<path d="M1381 5266 c-69 -17 -126 -37 -129 -44 -5 -17 98 -273 113 -278 20
-8 268 61 278 77 7 11 -5 48 -43 137 -44 102 -73 147 -92 141 -2 0 -59 -15
-127 -33z"/>
<path d="M5193 5285 c-54 -38 -55 -156 -2 -256 31 -57 82 -109 108 -109 21 0
166 78 195 106 61 58 73 138 27 185 -24 24 -38 29 -76 29 -25 0 -56 -5 -67
-11 -18 -10 -24 -8 -41 16 -21 28 -72 55 -104 55 -10 0 -28 -7 -40 -15z"/>
<path d="M793 5214 c2 -35 0 -37 -37 -48 -22 -6 -41 -17 -44 -25 -3 -9 2 -11
14 -8 11 3 38 11 62 17 35 9 42 15 42 36 0 29 -16 64 -30 64 -5 0 -8 -16 -7
-36z"/>
<path d="M1030 5177 l-125 -32 3 -34 c3 -35 75 -228 96 -256 10 -13 21 -12 91
5 91 23 218 60 224 66 5 5 -101 246 -117 267 -19 22 -25 22 -172 -16z m175
-54 c22 -49 24 -61 14 -78 -11 -17 -10 -18 3 -8 12 10 18 4 36 -39 17 -40 19
-54 10 -59 -17 -11 -152 -47 -204 -55 l-41 -6 -47 110 c-25 60 -46 114 -46
120 0 11 29 23 65 28 11 1 20 3 20 4 0 3 131 38 147 39 11 1 25 -18 43 -56z"/>
<path d="M1010 4935 c0 -18 19 -40 26 -32 4 4 0 15 -9 24 -9 10 -17 13 -17 8z"/>
<path d="M735 5098 c-38 -10 -77 -26 -85 -33 -19 -20 -8 -19 90 6 45 11 88 18
95 15 13 -5 105 -207 105 -231 0 -9 -20 -20 -52 -29 -108 -30 -208 -56 -217
-56 -4 0 -25 41 -46 90 -21 50 -42 93 -47 96 -17 11 -7 -34 29 -118 33 -78 40
-88 63 -88 14 0 87 16 163 37 107 29 137 40 137 54 0 23 -23 85 -60 166 -18
37 -36 78 -41 91 -11 27 -37 27 -134 0z"/>
<path d="M5900 4775 c0 -79 34 -130 100 -150 20 -5 15 2 -24 37 -44 39 -49 48
-54 96 -6 66 -22 78 -22 17z"/>
<path d="M1355 4605 c-27 -26 -32 -65 -15 -109 8 -23 6 -27 -14 -32 -39 -9
-68 -48 -68 -89 0 -44 24 -73 68 -81 27 -5 34 -11 34 -30 0 -13 14 -39 31 -59
41 -47 86 -49 123 -4 14 17 26 35 26 40 0 5 18 9 41 9 32 0 47 6 71 30 26 27
30 36 25 68 -4 21 -17 46 -30 57 -22 20 -22 21 -5 40 24 25 23 80 -2 105 -29
29 -63 34 -99 16 -25 -14 -31 -14 -31 -3 0 8 -12 26 -26 41 -36 35 -95 36
-129 1z m105 -25 c11 -11 22 -31 26 -45 3 -14 8 -25 10 -25 1 0 19 9 39 21 41
24 79 20 95 -12 14 -24 -5 -59 -46 -86 l-27 -17 34 -11 c19 -7 41 -24 49 -38
13 -24 13 -30 0 -54 -22 -40 -68 -43 -103 -7 l-27 27 0 -47 c0 -63 -13 -86
-50 -86 -51 0 -85 63 -59 111 10 19 8 20 -24 14 -67 -13 -106 19 -87 69 10 27
56 56 90 56 25 0 25 2 0 42 -24 40 -25 57 -4 86 19 27 57 29 84 2z"/>
<path d="M420 4493 c-14 -2 -46 -11 -71 -19 -43 -14 -47 -18 -74 -82 -17 -40
-29 -85 -29 -112 0 -41 93 -390 116 -433 7 -14 3 -28 -16 -55 -64 -94 -68
-147 -19 -291 46 -134 172 -414 200 -443 35 -36 63 -36 194 3 272 80 339 114
339 171 0 80 -125 552 -158 597 -34 47 -100 89 -148 97 -25 3 -47 12 -49 18
-16 55 -169 484 -181 507 -13 26 -52 52 -72 48 -4 -1 -18 -4 -32 -6z m71 -65
c27 -51 98 -274 93 -293 -3 -13 -2 -16 3 -8 6 8 20 -17 41 -76 18 -49 32 -91
32 -95 0 -3 -11 -6 -25 -6 -20 0 -25 5 -26 28 0 15 -3 21 -6 13 -5 -11 -7 -11
-14 0 -6 9 -9 10 -9 2 0 -6 5 -15 10 -18 22 -13 8 -32 -31 -44 -23 -7 -47 -15
-54 -17 -21 -8 -27 27 -8 42 17 13 17 13 1 14 -10 0 -18 7 -18 15 0 9 -6 12
-16 8 -13 -5 -14 0 -8 32 6 31 4 37 -8 33 -10 -4 -18 7 -28 40 -7 26 -19 58
-27 72 -7 14 -13 31 -13 38 0 7 -7 27 -16 44 -13 25 -14 32 -2 39 10 7 9 9 -4
9 -11 0 -18 8 -18 19 0 11 -4 22 -9 25 -5 3 -11 22 -13 42 -4 32 -1 37 30 50
51 21 70 17 93 -18 16 -26 19 -28 14 -9 -5 16 -4 21 4 17 6 -4 11 -2 11 4 0 7
-7 10 -15 7 -15 -6 -29 6 -19 16 10 10 45 -6 55 -25z m226 -580 c15 -7 42 -23
59 -35 17 -13 34 -20 39 -15 5 4 5 2 1 -5 -3 -6 0 -27 8 -45 17 -40 35 -113
86 -338 12 -51 14 -58 25 -83 12 -27 -4 -37 -112 -68 -169 -48 -186 -54 -191
-67 -6 -18 18 -15 115 14 49 14 119 35 157 45 88 24 98 32 91 78 -4 28 -1 24
10 -14 26 -88 22 -100 -37 -128 -63 -30 -340 -117 -372 -117 -37 0 -52 20
-101 130 -112 251 -165 400 -165 461 0 28 38 95 48 85 3 -4 1 -11 -7 -15 -22
-14 -30 -76 -15 -133 29 -117 159 -435 185 -451 23 -14 66 -1 72 23 3 11 -5
40 -18 65 -13 24 -29 62 -36 84 -7 23 -16 41 -20 41 -8 0 -24 58 -20 78 1 6
-3 12 -9 12 -5 0 -10 8 -10 18 0 10 -16 52 -37 92 -44 90 -48 141 -15 187 37
53 143 104 229 112 7 1 25 -4 40 -11z m130 -18 c32 -33 53 -91 102 -275 38
-142 49 -215 16 -105 -14 47 -30 101 -35 120 -44 171 -67 234 -98 261 -18 16
-28 29 -23 29 5 0 22 -14 38 -30z"/>
<path d="M346 4381 c-4 -5 -2 -12 3 -15 5 -4 12 -2 15 3 4 5 2 12 -3 15 -5 4
-12 2 -15 -3z"/>
<path d="M471 4354 c0 -11 3 -14 6 -6 3 7 2 16 -1 19 -3 4 -6 -2 -5 -13z"/>
<path d="M490 4360 c0 -5 5 -10 10 -10 6 0 10 5 10 10 0 6 -4 10 -10 10 -5 0
-10 -4 -10 -10z"/>
<path d="M350 4340 c0 -5 5 -10 11 -10 5 0 7 5 4 10 -3 6 -8 10 -11 10 -2 0
-4 -4 -4 -10z"/>
<path d="M526 4271 c-4 -7 -5 -15 -2 -18 9 -9 19 4 14 18 -4 11 -6 11 -12 0z"/>
<path d="M506 4237 c3 -10 9 -15 12 -12 3 3 0 11 -7 18 -10 9 -11 8 -5 -6z"/>
<path d="M390 4215 c0 -5 5 -17 10 -25 5 -8 10 -10 10 -5 0 6 -5 17 -10 25 -5
8 -10 11 -10 5z"/>
<path d="M531 4194 c0 -11 3 -14 6 -6 3 7 2 16 -1 19 -3 4 -6 -2 -5 -13z"/>
<path d="M440 4095 c0 -8 4 -15 10 -15 5 0 7 7 4 15 -4 8 -8 15 -10 15 -2 0
-4 -7 -4 -15z"/>
<path d="M733 3623 c-12 -2 -36 -17 -53 -33 -27 -25 -34 -28 -56 -18 -55 25
-110 -38 -78 -91 27 -46 175 -124 195 -104 4 5 22 36 38 70 39 78 42 144 9
167 -12 9 -25 15 -28 15 -3 -1 -15 -4 -27 -6z"/>
<path d="M5745 4474 c-55 -20 -76 -43 -140 -150 -42 -70 -75 -111 -141 -171
-47 -43 -96 -96 -109 -118 -30 -51 -39 -116 -25 -180 24 -115 24 -112 0 -125
-19 -10 -27 -9 -51 9 -36 26 -37 26 -49 -4 -9 -23 -2 -88 14 -126 12 -27 -80
-115 -134 -129 -84 -21 -117 -52 -90 -85 19 -23 117 -49 143 -38 22 11 146
111 203 165 19 17 34 25 38 20 3 -6 -19 -35 -50 -64 -72 -67 -219 -231 -252
-280 -38 -58 -11 -113 77 -159 l43 -22 -6 -46 c-4 -25 -13 -91 -21 -146 -21
-156 -34 -200 -71 -252 -36 -51 -46 -110 -21 -135 7 -7 22 -31 33 -53 24 -51
48 -54 96 -15 26 22 41 45 52 83 9 32 55 112 119 208 57 86 109 171 117 188
l13 32 98 -3 c135 -4 132 -9 130 179 -1 81 -3 168 -6 193 -14 138 -15 170 -7
170 7 0 34 -143 58 -307 5 -40 9 -44 61 -68 31 -14 64 -23 75 -19 26 8 23 66
-6 112 -30 48 -34 64 -37 137 l-3 59 45 -2 c39 -3 48 1 78 32 39 40 35 51 -17
51 -30 0 -38 4 -40 21 -2 16 10 31 46 57 135 96 162 204 101 392 -32 99 -32
100 -21 195 18 143 15 197 -12 255 -31 65 -56 87 -143 124 -79 34 -126 38
-188 15z m196 -50 c65 -32 106 -83 115 -140 4 -26 3 -90 -2 -143 -12 -144 -9
-189 21 -266 39 -99 40 -193 2 -257 -28 -47 -101 -118 -123 -118 -15 0 -24
-23 -24 -60 0 -19 9 -36 26 -49 22 -18 24 -22 10 -27 -9 -3 -30 -1 -46 6 -28
12 -30 16 -30 68 0 60 29 131 68 169 33 30 20 99 -15 86 -9 -4 -13 5 -13 26 0
38 -25 91 -52 110 -14 9 -17 16 -9 24 6 6 11 20 12 31 0 18 3 16 13 -7 11 -25
14 -26 25 -13 7 9 11 23 7 31 -3 9 -2 13 4 10 6 -3 10 -11 10 -17 0 -14 30
-48 41 -48 4 0 2 15 -6 34 -21 49 -26 135 -10 166 27 52 -16 198 -73 253 l-28
27 -55 -21 c-103 -40 -142 -64 -171 -103 -15 -21 -28 -46 -28 -54 0 -8 -9 -29
-20 -47 -19 -30 -19 -33 -3 -46 15 -12 16 -12 11 7 -3 13 0 21 8 21 8 0 14 -9
14 -19 0 -11 4 -27 9 -36 5 -9 6 -32 4 -50 -5 -31 -7 -32 -39 -26 -41 7 -94
-9 -128 -41 -14 -13 -26 -22 -26 -19 0 13 35 70 49 81 12 9 13 12 3 13 -25 0
-72 -60 -72 -92 0 -40 -28 -94 -42 -80 -6 6 -13 42 -16 80 -6 96 17 143 111
224 87 75 101 91 171 205 31 50 69 99 84 109 58 38 134 38 213 -2z m-43 -171
c11 -16 28 -53 37 -85 l18 -56 -33 -42 c-75 -94 -162 -127 -207 -77 -34 37
-45 67 -46 128 0 75 22 113 64 107 22 -3 26 -2 18 8 -7 9 1 16 33 27 66 24 94
21 116 -10z m-198 -321 c0 -5 14 -8 30 -7 25 2 30 -2 30 -22 0 -12 9 -28 20
-35 26 -17 25 -28 -5 -61 -54 -57 -149 -25 -157 53 -3 38 -2 41 29 52 18 7 33
16 33 20 0 4 5 8 10 8 6 0 10 -4 10 -8z m143 -29 c6 -33 5 -35 -16 -27 -10 3
-16 16 -15 30 3 33 24 30 31 -3z m-303 -4 c0 -36 -27 -108 -49 -130 -14 -15
-47 -62 -73 -106 -43 -73 -114 -150 -208 -230 -57 -48 -67 -51 -116 -35 -50
17 -56 29 -16 38 70 15 93 29 158 93 90 89 90 89 157 211 32 58 74 120 92 138
35 33 55 40 55 21z m42 -53 c3 5 3 3 1 -5 -2 -8 1 -18 8 -21 6 -4 0 -9 -15
-12 -21 -4 -24 -2 -17 11 5 9 6 23 4 31 -4 12 -3 12 5 1 5 -7 12 -9 14 -5z
m36 -71 c-3 -3 -9 2 -12 12 -6 14 -5 15 5 6 7 -7 10 -15 7 -18z m-24 -1 c3 -8
2 -12 -4 -9 -6 3 -10 10 -10 16 0 14 7 11 14 -7z m291 -6 c11 -32 8 -90 -9
-176 -8 -42 -17 -90 -19 -106 -3 -16 -1 -92 4 -169 8 -124 12 -145 33 -176 42
-63 45 -101 5 -65 -9 8 -26 17 -36 18 -14 2 -19 16 -25 67 -4 35 -15 103 -24
151 -14 75 -15 102 -5 188 6 55 11 124 11 153 0 53 30 137 49 137 5 0 13 -10
16 -22z m-228 -14 c-3 -3 -12 -4 -19 -1 -8 3 -5 6 6 6 11 1 17 -2 13 -5z m78
-24 c-3 -5 -18 -10 -33 -9 -24 0 -25 1 -7 9 28 12 47 12 40 0z m55 -25 c0 -5
-5 -3 -10 5 -5 8 -10 20 -10 25 0 6 5 3 10 -5 5 -8 10 -19 10 -25z m-33 -1
c-3 -3 -12 -4 -19 -1 -8 3 -5 6 6 6 11 1 17 -2 13 -5z m-463 -20 c15 -6 15 -8
-1 -19 -20 -15 -33 -11 -33 11 0 15 9 17 34 8z m643 -26 c-3 -8 -6 -5 -6 6 -1
11 2 17 5 13 3 -3 4 -12 1 -19z m33 -8 c0 -5 -4 -10 -10 -10 -5 0 -10 5 -10
10 0 6 5 10 10 10 6 0 10 -4 10 -10z m-540 -164 c0 -2 -8 -10 -17 -17 -16 -13
-17 -12 -4 4 13 16 21 21 21 13z m40 -57 c-7 -11 -14 -18 -17 -15 -3 3 0 12 7
21 18 21 23 19 10 -6z m70 7 c0 -3 -4 -8 -10 -11 -5 -3 -10 -1 -10 4 0 6 5 11
10 11 6 0 10 -2 10 -4z m17 -33 c-3 -10 -5 -4 -5 12 0 17 2 24 5 18 2 -7 2
-21 0 -30z m-107 -14 c0 -6 -4 -7 -10 -4 -5 3 -10 1 -10 -4 0 -6 -5 -11 -10
-11 -6 0 -5 8 2 19 12 19 28 19 28 0z m-150 -40 c-12 -16 -24 -28 -27 -26 -4
5 37 57 44 57 3 0 -5 -14 -17 -31z m240 -1 c0 -13 -5 -30 -10 -38 -8 -11 -9
-8 -4 12 4 19 1 29 -13 37 -17 10 -16 10 5 11 16 0 22 -6 22 -22z m-122 -17
c3 -8 -1 -12 -9 -9 -7 2 -15 10 -17 17 -3 8 1 12 9 9 7 -2 15 -10 17 -17z
m209 -3 c-3 -8 -6 -5 -6 6 -1 11 2 17 5 13 3 -3 4 -12 1 -19z m-407 -72 c0 -3
-4 -8 -10 -11 -5 -3 -10 -1 -10 4 0 6 5 11 10 11 6 0 10 -2 10 -4z m-38 -43
c-6 -3 -10 -9 -6 -14 3 -5 0 -9 -5 -9 -6 0 -11 4 -11 8 0 12 23 32 29 25 3 -3
0 -8 -7 -10z m-15 -100 c0 -13 -4 -11 -19 7 -10 12 -18 27 -18 33 0 5 8 3 18
-6 10 -10 19 -25 19 -34z m138 -93 c3 -5 2 -10 -4 -10 -5 0 -13 5 -16 10 -3 6
-2 10 4 10 5 0 13 -4 16 -10z m111 -56 c18 -14 18 -14 -6 -3 -31 14 -36 19
-24 19 6 0 19 -7 30 -16z m-107 -5 c20 -7 30 -16 27 -25 -3 -7 -22 -66 -42
-131 -68 -218 -125 -346 -152 -341 -26 5 -25 40 3 78 47 65 63 115 85 265 12
83 24 153 27 158 6 10 14 9 52 -4z m165 -111 c-26 -53 -85 -147 -142 -231 -29
-42 -62 -103 -73 -133 -22 -67 -35 -85 -55 -77 -23 9 -17 37 27 120 22 43 63
132 90 198 28 66 52 121 54 123 1 2 10 -4 19 -13 9 -9 16 -12 16 -7 0 10 57
49 73 51 4 1 0 -14 -9 -31z"/>
<path d="M5700 4210 c-13 -8 -13 -10 2 -10 11 0 15 -5 12 -14 -6 -16 31 -40
46 -31 17 10 11 44 -9 55 -24 12 -32 12 -51 0z"/>
<path d="M5855 4138 c10 -33 35 -50 51 -37 11 9 11 16 2 33 -11 20 -10 20 8 6
18 -14 18 -14 5 3 -7 9 -27 17 -43 17 -26 0 -29 -3 -23 -22z"/>
<path d="M5735 4045 c16 -13 16 -16 3 -11 -12 3 -15 1 -11 -10 7 -20 47 -28
72 -14 40 21 28 34 -39 45 -43 7 -44 6 -25 -10z"/>
<path d="M929 4400 c-73 -38 -126 -126 -114 -189 8 -44 46 -96 85 -116 38 -20
111 -19 152 1 92 44 127 182 66 260 -25 30 -91 64 -128 63 -14 0 -41 -9 -61
-19z m134 -32 c59 -41 75 -83 56 -151 -24 -89 -110 -135 -192 -103 -52 20 -78
55 -84 111 -13 115 129 207 220 143z"/>
<path d="M5012 4299 c-45 -48 -37 -140 21 -236 23 -39 37 -53 53 -53 31 0 144
79 172 120 63 93 26 169 -70 143 -38 -10 -42 -9 -62 13 -12 14 -37 27 -57 30
-29 5 -40 2 -57 -17z m68 -19 c8 -5 11 -13 6 -17 -5 -4 -11 -3 -13 4 -2 7 -11
9 -20 6 -11 -4 -14 -2 -9 5 9 14 16 15 36 2z m-19 -38 c26 10 59 -26 56 -62
-2 -29 -4 -31 -29 -26 -16 3 -28 1 -28 -4 0 -6 7 -10 16 -10 9 0 14 -6 11 -12
-2 -7 -10 -12 -16 -10 -13 3 -14 -8 -1 -28 8 -13 10 -12 10 3 0 10 5 15 10 12
7 -4 7 -13 0 -26 -8 -13 -7 -19 0 -19 6 0 15 12 21 26 5 15 12 24 15 21 3 -3
1 -15 -6 -26 -7 -14 -7 -21 0 -21 5 0 10 6 10 14 0 8 6 16 13 19 9 3 9 7 -2
20 -10 13 -17 15 -27 6 -11 -9 -14 -8 -14 5 0 10 5 14 10 11 6 -3 11 0 12 7 0
7 2 18 2 23 2 9 63 75 71 75 2 0 1 -10 -3 -22 -3 -14 -2 -19 6 -14 7 4 12 1
12 -9 0 -13 -4 -14 -20 -5 -22 12 -40 6 -40 -12 0 -7 5 -6 14 1 9 8 16 8 20 2
4 -5 2 -12 -3 -16 -6 -3 -8 -12 -4 -20 3 -8 0 -15 -6 -15 -6 0 -11 5 -11 10 0
6 -7 10 -15 10 -22 0 -18 -17 6 -23 29 -8 51 3 45 20 -3 8 -2 12 3 8 5 -3 11
0 13 7 3 7 7 5 11 -6 4 -10 3 -15 -3 -11 -6 3 -10 0 -10 -7 -1 -16 -77 -83
-105 -91 -20 -7 -31 7 -72 85 -13 26 -8 92 6 69 4 -6 12 -7 21 0 13 8 12 12
-5 25 -19 14 -21 13 -32 -13 l-12 -28 -1 28 c0 15 4 27 10 27 5 0 7 8 3 18 -5
14 -3 14 9 -2 8 -11 22 -17 29 -14z m180 -47 c11 8 12 -6 0 -23 -7 -11 -10
-10 -15 3 -3 9 -5 24 -5 33 1 15 2 15 6 -1 2 -9 9 -15 14 -12z"/>
<path d="M5030 4168 c0 -7 5 -20 10 -28 8 -12 10 -11 10 7 0 12 -4 25 -10 28
-5 3 -10 0 -10 -7z"/>
<path d="M1263 4006 c-47 -21 -66 -56 -61 -116 l3 -50 -37 0 c-53 0 -89 -34
-95 -91 -7 -62 28 -105 93 -115 37 -5 44 -9 38 -23 -28 -63 -9 -134 38 -150
71 -25 125 0 149 68 l10 29 45 -25 c106 -60 198 20 145 125 -11 22 -31 48 -43
56 l-22 16 22 16 c52 36 68 121 32 167 -26 32 -76 43 -133 29 -30 -8 -43 -8
-46 0 -8 23 -57 68 -81 72 -14 3 -39 -1 -57 -8z m84 -64 c13 -15 20 -34 17
-44 -2 -9 -2 -28 2 -41 l6 -26 29 34 c48 54 140 60 159 9 12 -29 -4 -79 -22
-68 -7 4 -8 3 -4 -4 8 -13 -31 -41 -87 -62 -46 -17 -64 -43 -25 -36 16 2 25
-1 25 -9 0 -7 -7 -11 -15 -8 -11 5 -13 1 -7 -16 6 -21 5 -22 -15 -11 -17 9
-25 9 -34 -1 -8 -9 -7 -11 9 -5 19 6 19 5 2 -8 -10 -8 -27 -11 -39 -8 -15 4
-19 2 -13 -7 4 -7 16 -11 26 -8 10 3 21 1 24 -3 9 -15 -26 -94 -52 -117 -30
-28 -53 -29 -87 -2 -21 16 -25 27 -21 54 4 38 23 72 43 80 9 3 10 0 2 -14 -5
-11 -14 -21 -18 -23 -5 -1 -12 -20 -15 -40 -5 -30 -2 -39 16 -50 12 -8 29 -13
37 -12 47 4 46 4 30 14 -8 5 -23 7 -32 4 -13 -4 -16 -1 -12 10 3 9 2 16 -4 16
-6 0 -12 -5 -14 -11 -2 -7 -4 6 -4 27 -1 21 1 31 3 22 3 -10 9 -18 14 -18 13
0 11 14 -3 28 -10 10 -8 14 9 18 14 4 19 11 16 25 -4 13 0 19 11 19 14 0 14 2
-1 18 -16 15 -21 16 -43 5 -31 -16 -84 -17 -113 -1 -47 25 -61 70 -29 95 11
10 12 12 2 8 -8 -4 -5 3 8 14 19 17 32 19 70 14 26 -3 54 -12 63 -19 29 -26
28 -2 -2 39 -73 101 9 213 88 119z m210 -297 c4 0 7 -8 6 -18 -2 -10 1 -15 7
-12 6 4 7 -1 3 -11 -5 -13 -11 -7 -29 27 -25 47 -33 81 -9 39 7 -14 17 -25 22
-25z m-127 -35 c4 0 10 -7 14 -15 7 -19 1 -19 -18 1 -9 8 -15 23 -15 32 1 15
2 15 6 0 2 -10 8 -18 13 -18z m120 -50 c0 -5 -5 -10 -11 -10 -5 0 -7 5 -4 10
3 6 8 10 11 10 2 0 4 -4 4 -10z"/>
<path d="M1250 3951 c0 -6 4 -13 10 -16 6 -3 7 1 4 9 -7 18 -14 21 -14 7z"/>
<path d="M1468 3883 c6 -2 18 -2 25 0 6 3 1 5 -13 5 -14 0 -19 -2 -12 -5z"/>
<path d="M1437 3856 c-4 -10 -1 -13 8 -9 8 3 12 9 9 14 -7 12 -11 11 -17 -5z"/>
<path d="M1516 3861 c-3 -5 1 -11 9 -14 9 -4 12 -1 8 9 -6 16 -10 17 -17 5z"/>
<path d="M1370 3796 c0 -2 7 -9 15 -16 13 -11 14 -10 9 4 -5 14 -24 23 -24 12z"/>
<path d="M1158 3783 c7 -3 16 -2 19 1 4 3 -2 6 -13 5 -11 0 -14 -3 -6 -6z"/>
<path d="M1197 3776 c-5 -14 -2 -17 15 -14 22 3 38 28 18 28 -6 0 -8 -4 -5
-10 3 -5 2 -10 -4 -10 -5 0 -11 5 -13 12 -3 7 -7 5 -11 -6z"/>
<path d="M1831 3674 c0 -11 3 -14 6 -6 3 7 2 16 -1 19 -3 4 -6 -2 -5 -13z"/>
<path d="M1816 3585 c-9 -26 -7 -32 5 -12 6 10 9 21 6 23 -2 3 -7 -2 -11 -11z"/>
<path d="M1801 3504 c0 -11 3 -14 6 -6 3 7 2 16 -1 19 -3 4 -6 -2 -5 -13z"/>
<path d="M1720 3187 c0 -5 -15 -49 -34 -96 -49 -123 -122 -371 -142 -476 -25
-137 -16 -334 20 -440 30 -88 49 -115 80 -115 41 0 47 -13 37 -66 -23 -120
-23 -121 16 -129 19 -3 37 -4 40 -1 3 3 -1 34 -10 68 -77 311 -93 637 -46 958
18 126 50 277 63 298 3 5 -1 9 -9 9 -8 0 -15 -5 -15 -10z m-103 -514 c-10
-121 -2 -358 18 -478 8 -49 13 -91 11 -93 -2 -1 -18 32 -37 75 -30 73 -33 87
-37 219 -4 119 -1 159 18 250 20 99 27 124 33 124 2 0 -1 -44 -6 -97z"/>
<path d="M1187 3169 c-23 -14 -47 -62 -47 -97 0 -26 -3 -28 -28 -24 -32 4 -79
-28 -93 -65 -11 -30 10 -84 42 -107 13 -9 40 -16 61 -16 36 0 38 -1 38 -34 0
-19 9 -45 22 -61 19 -25 26 -27 71 -22 68 6 90 32 85 101 -3 47 -2 50 26 57
106 29 99 160 -9 147 l-35 -4 6 36 c5 30 1 42 -21 68 -21 25 -34 32 -63 32
-21 0 -45 -5 -55 -11z m91 -25 c25 -17 31 -79 11 -116 -10 -19 -9 -20 7 -13
11 4 38 10 61 12 38 5 43 3 54 -20 6 -14 9 -33 6 -41 -6 -16 -56 -45 -89 -51
-30 -6 -33 -12 -20 -40 30 -65 2 -115 -64 -115 -50 0 -81 60 -55 108 14 26 -9
36 -44 20 -18 -8 -31 -8 -53 1 -93 39 -44 159 50 123 18 -6 34 -9 37 -7 2 3
-1 21 -7 41 -25 81 42 143 106 98z"/>
<path d="M5983 2950 c-31 -13 -46 -46 -127 -289 l-73 -216 -54 -6 c-73 -8 -96
-24 -119 -86 -24 -66 -140 -528 -140 -561 0 -60 35 -82 229 -141 153 -47 190
-50 225 -18 23 21 209 450 235 541 13 47 3 76 -40 124 l-36 40 28 84 c43 130
111 380 112 415 1 38 -22 67 -75 94 -43 22 -134 33 -165 19z m134 -78 c-32 -3
-36 -6 -26 -18 8 -10 8 -14 0 -14 -6 0 -11 -6 -11 -14 0 -7 -27 -96 -60 -197
-52 -155 -59 -184 -46 -191 8 -5 13 -14 10 -21 -4 -11 -14 -10 -53 2 l-48 16
12 45 c7 25 17 55 22 65 6 11 20 49 32 85 12 36 26 74 31 85 5 11 18 52 30 91
11 40 26 76 33 82 21 17 61 18 87 2 l24 -15 -37 -3z m-407 -486 c0 -2 -9 -6
-20 -9 -11 -3 -18 -1 -14 4 5 9 34 13 34 5z m203 -37 c71 -22 159 -68 165 -86
5 -18 -16 -16 -35 3 -9 8 -22 13 -30 10 -8 -3 -12 -2 -9 3 5 8 -38 23 -201 71
-40 12 -73 24 -73 27 0 10 121 -8 183 -28z m-247 -11 c-4 -13 -14 -48 -22 -78
-16 -57 -21 -67 -30 -58 -8 9 38 158 49 158 5 0 6 -10 3 -22z m101 -15 c8 -10
12 -12 8 -5 -3 6 -2 12 2 12 5 0 9 -16 9 -35 0 -34 -1 -35 -13 -13 -15 28 -17
19 -3 -16 6 -17 6 -26 -1 -26 -5 0 -9 -6 -8 -12 3 -27 -1 -48 -11 -48 -5 0
-10 8 -11 18 -1 9 -7 -3 -15 -27 -8 -25 -11 -47 -8 -50 2 -3 7 5 10 16 6 22
51 59 61 49 9 -9 -8 -26 -28 -26 -21 0 -23 -8 -9 -30 8 -13 10 -12 10 5 0 15
3 16 12 7 15 -15 6 -24 -33 -28 -41 -5 -51 -14 -15 -14 16 0 25 -4 21 -10 -4
-6 -10 -8 -14 -6 -12 8 -17 -72 -8 -136 3 -21 2 -40 -3 -43 -4 -3 -11 23 -16
58 -6 49 -9 57 -15 37 l-7 -25 -1 25 c-2 20 -5 16 -18 -20 -8 -25 -20 -50 -25
-57 -5 -7 -7 -16 -4 -22 3 -5 -1 -22 -9 -37 -18 -35 -18 -34 -4 42 11 61 105
410 115 425 8 13 15 11 31 -8z m67 -1 c3 -5 -1 -9 -9 -9 -8 0 -15 4 -15 9 0 4
4 8 9 8 6 0 12 -4 15 -8z m66 -12 c0 -5 -2 -10 -4 -10 -3 0 -8 5 -11 10 -3 6
-1 10 4 10 6 0 11 -4 11 -10z m-79 -37 c-12 -20 -14 -14 -5 12 4 9 9 14 11 11
3 -2 0 -13 -6 -23z m29 -23 c8 -15 8 -20 -3 -20 -7 0 -13 9 -14 20 -1 11 0 20
2 20 2 0 9 -9 15 -20z m10 -50 c0 -5 -7 -10 -16 -10 -8 0 -12 5 -9 10 3 6 10
10 16 10 5 0 9 -4 9 -10z m257 -12 c-3 -8 -6 -5 -6 6 -1 11 2 17 5 13 3 -3 4
-12 1 -19z m-510 -54 c-7 -21 -21 -77 -31 -124 -10 -47 -24 -105 -32 -129 -8
-25 -13 -45 -11 -46 13 -11 156 -60 249 -87 65 -18 118 -37 118 -42 0 -9 -98
-3 -135 8 -11 4 -6 0 10 -8 17 -8 48 -15 70 -16 40 0 75 -14 59 -22 -12 -5
-47 -4 -106 6 -62 9 -270 83 -279 98 -14 21 1 28 26 12 13 -9 30 -14 37 -11 8
3 2 9 -14 16 -16 6 -28 15 -28 21 0 6 -5 8 -11 4 -15 -9 -6 45 38 229 21 84
40 144 45 139 5 -5 3 -25 -5 -48z m493 -1 c-11 -17 -11 -17 -6 0 3 10 6 24 7
30 0 9 2 9 5 0 3 -7 0 -20 -6 -30z m-180 3 c0 -3 -4 -8 -10 -11 -5 -3 -10 -1
-10 4 0 6 5 11 10 11 6 0 10 -2 10 -4z m0 -35 c0 -6 -4 -13 -10 -16 -5 -3 -10
1 -10 9 0 9 5 16 10 16 6 0 10 -4 10 -9z m150 -46 c-11 -26 -23 -45 -26 -43
-3 3 5 26 17 52 29 59 36 53 9 -9z m-44 -102 c-8 -15 -15 -25 -16 -21 0 12 23
58 27 54 3 -2 -2 -17 -11 -33z m-251 -51 c-3 -3 -11 0 -18 7 -9 10 -8 11 6 5
10 -3 15 -9 12 -12z m-98 -14 c-3 -8 -6 -5 -6 6 -1 11 2 17 5 13 3 -3 4 -12 1
-19z m20 -10 c-3 -8 -6 -5 -6 6 -1 11 2 17 5 13 3 -3 4 -12 1 -19z m266 -76
c-20 -51 -38 -90 -40 -88 -3 2 7 35 22 73 31 79 47 114 51 110 2 -2 -13 -45
-33 -95z m-213 81 c-1 -10 -21 -35 -42 -51 -17 -14 -68 -7 -68 10 0 5 5 6 10
3 6 -3 10 2 10 12 1 17 1 17 11 1 5 -10 15 -18 20 -18 14 0 39 26 39 39 0 6 5
11 10 11 6 0 10 -3 10 -7z m30 -68 c14 -8 21 -14 15 -14 -5 0 -21 6 -35 14
-14 8 -20 14 -15 14 6 0 21 -6 35 -14z"/>
<path d="M5958 2423 c7 -3 16 -2 19 1 4 3 -2 6 -13 5 -11 0 -14 -3 -6 -6z"/>
<path d="M5630 1755 c19 -7 42 -13 50 -13 8 0 -1 6 -20 13 -19 7 -42 13 -50
13 -8 0 1 -6 20 -13z"/>
<path d="M5710 1730 c8 -5 20 -10 25 -10 6 0 3 5 -5 10 -8 5 -19 10 -25 10 -5
0 -3 -5 5 -10z"/>
<path d="M317 2908 c-99 -58 -110 -242 -25 -436 26 -59 87 -148 126 -186 l30
-28 -35 -68 c-30 -58 -37 -85 -50 -194 -14 -119 -14 -130 2 -173 23 -59 82
-124 134 -148 35 -15 38 -19 25 -32 -25 -25 -35 -52 -26 -69 7 -13 14 -9 41
25 30 37 71 55 71 31 0 -5 -8 -7 -17 -4 -15 5 -15 4 1 -6 15 -10 20 -9 27 1 6
11 9 9 9 -7 0 -40 33 -123 57 -146 16 -15 35 -22 58 -21 35 1 35 1 35 -42 0
-37 5 -47 31 -66 23 -16 39 -20 66 -16 41 7 52 20 54 62 0 17 4 40 8 53 6 21
10 18 49 -37 23 -34 48 -61 55 -61 15 0 55 58 66 96 4 16 4 42 0 58 -15 56 11
43 59 -28 20 -31 32 -41 44 -37 14 5 8 16 -33 58 -47 49 -50 54 -34 69 12 12
16 33 15 73 -1 31 -1 59 -1 63 2 12 49 -10 108 -49 87 -57 131 -141 103 -193
-8 -15 -6 -20 11 -25 11 -4 24 -4 27 0 7 6 7 86 1 151 -1 20 13 60 44 121 25
51 48 113 52 140 l6 48 -20 -25 c-16 -19 -81 -141 -128 -238 0 -2 -23 13 -50
34 -50 39 -117 73 -143 74 -38 1 -43 17 -17 52 47 62 67 118 67 194 0 65 -4
78 -47 160 -56 109 -80 140 -132 179 -38 28 -52 57 -32 69 5 3 29 -3 52 -14
135 -61 224 15 184 155 -23 76 -71 143 -139 190 -50 34 -65 40 -124 43 -62 4
-70 2 -117 -30 -66 -44 -102 -113 -118 -231 -10 -79 -14 -88 -35 -94 -31 -7
-37 3 -52 95 -16 98 -66 243 -110 317 -63 104 -152 140 -233 93z m123 -33 c77
-40 166 -241 194 -437 6 -43 16 -79 21 -79 6 0 43 6 83 13 63 10 71 14 56 25
-14 10 -16 24 -11 89 10 139 71 223 169 232 68 6 126 -18 182 -78 59 -63 90
-131 83 -184 -7 -50 -28 -70 -72 -69 -65 2 -144 51 -205 127 l-55 69 -12 -32
c-8 -18 -16 -58 -19 -90 -6 -52 -4 -61 16 -81 22 -22 23 -23 37 -4 8 10 19 38
26 61 l11 43 23 -21 c20 -20 21 -24 8 -49 -7 -14 -21 -32 -29 -39 -24 -20 -20
-27 38 -59 58 -33 104 -85 136 -153 11 -24 29 -58 40 -75 29 -45 35 -111 16
-175 -18 -64 -68 -129 -99 -129 -33 -1 -104 -36 -119 -59 -8 -13 -23 -21 -41
-21 -16 0 -37 -5 -47 -10 -12 -7 -27 -7 -45 0 -44 17 -153 15 -173 -3 -13 -12
-26 -14 -52 -8 -93 22 -164 73 -195 141 -17 38 -18 51 -7 160 12 128 33 194
78 241 l25 27 -61 68 c-124 138 -195 350 -159 478 23 82 90 116 159 81z m472
-340 c12 -27 -2 -55 -28 -55 -16 0 -17 5 -8 49 8 37 20 40 36 6z m166 -801
c12 -4 22 -13 22 -20 0 -8 4 -14 9 -14 15 0 25 -88 12 -104 -6 -7 -8 -15 -5
-19 3 -3 -4 -8 -16 -12 -27 -9 -90 3 -90 16 0 6 -4 7 -10 4 -6 -4 -10 7 -10
25 0 27 6 33 58 57 51 24 54 27 31 30 -15 2 -44 -3 -64 -11 -37 -16 -61 -13
-49 5 3 6 13 8 22 4 9 -3 13 -3 9 1 -4 4 5 15 21 25 32 21 31 20 60 13z m-144
-83 c24 -26 17 -65 -11 -69 -16 -2 -26 5 -37 27 -28 53 9 85 48 42z m-109 -2
c14 -6 -1 -8 -47 -5 -43 3 -68 1 -68 -5 0 -6 -4 -7 -10 -4 -5 3 -10 10 -10 16
0 12 109 11 135 -2z m-122 -57 c10 -27 15 -56 11 -65 -3 -10 -1 -17 5 -17 14
0 14 30 1 64 -8 23 -7 26 13 26 12 0 33 3 47 5 20 4 21 4 6 -3 -11 -5 -21 -19
-23 -32 -3 -22 -2 -22 26 7 29 30 53 35 29 5 -7 -7 -13 -24 -15 -35 -3 -21 -2
-22 9 -2 6 11 12 21 13 23 1 1 10 0 19 -4 13 -5 5 -15 -36 -45 -60 -45 -68
-47 -61 -16 4 20 3 21 -10 4 -13 -15 -16 -15 -27 -3 -6 9 -9 20 -5 26 3 5 3
20 0 31 -6 17 -9 19 -17 8 -6 -10 -7 -7 -3 10 4 13 3 21 -2 18 -5 -3 -10 5
-11 19 -3 40 13 27 31 -24z m334 -77 c19 -13 24 -23 21 -45 -2 -16 -1 -27 4
-24 4 3 8 0 8 -5 0 -6 -5 -11 -11 -11 -6 0 -9 -6 -6 -13 7 -18 -12 -47 -19
-30 -3 6 -22 35 -43 65 -20 29 -40 62 -44 72 -7 17 -4 18 29 13 20 -3 47 -13
61 -22z m-147 -19 c0 -11 -19 -15 -25 -6 -3 5 1 10 9 10 9 0 16 -2 16 -4z
m-11 -39 c-1 -7 3 -25 10 -41 13 -32 9 -56 -10 -56 -6 0 -8 7 -5 17 4 9 1 20
-6 25 -11 6 -10 10 0 17 11 7 10 9 -3 15 -9 3 -14 10 -10 15 3 5 1 12 -5 16
-20 12 -10 26 10 15 11 -6 20 -16 19 -23z"/>
<path d="M379 2743 c-12 -16 -12 -17 1 -6 8 6 26 13 40 16 l25 4 -26 2 c-15 0
-33 -7 -40 -16z"/>
<path d="M456 2727 c3 -10 9 -15 12 -12 3 3 0 11 -7 18 -10 9 -11 8 -5 -6z"/>
<path d="M363 2680 c0 -25 2 -35 4 -22 2 12 2 32 0 45 -2 12 -4 2 -4 -23z"/>
<path d="M478 2675 c5 -11 12 -27 15 -35 5 -13 6 -13 6 1 1 8 -6 24 -15 35
-15 19 -15 19 -6 -1z"/>
<path d="M375 2609 c5 -30 33 -99 40 -99 3 0 -4 21 -14 48 -28 72 -32 79 -26
51z"/>
<path d="M512 2580 c0 -8 6 -31 13 -50 7 -19 13 -28 13 -20 0 8 -6 31 -13 50
-7 19 -13 28 -13 20z"/>
<path d="M545 2458 c4 -9 10 -47 15 -85 l9 -68 -4 74 c-2 41 -9 79 -15 85 -8
8 -9 6 -5 -6z"/>
<path d="M460 2420 c6 -11 13 -20 16 -20 2 0 0 9 -6 20 -6 11 -13 20 -16 20
-2 0 0 -9 6 -20z"/>
<path d="M490 2370 c6 -11 13 -20 16 -20 2 0 0 9 -6 20 -6 11 -13 20 -16 20
-2 0 0 -9 6 -20z"/>
<path d="M986 2107 c-22 -16 -18 -65 7 -81 39 -25 76 43 42 78 -20 19 -26 20
-49 3z"/>
<path d="M640 2030 c-23 -23 -24 -33 -9 -61 13 -26 49 -39 72 -27 26 13 23 73
-5 92 -29 20 -34 20 -58 -4z"/>
<path d="M853 1960 c-28 -11 -29 -21 -3 -38 44 -27 7 -81 -46 -68 -29 8 -32
-9 -5 -24 21 -11 64 0 75 19 4 5 21 7 39 4 23 -3 37 0 46 11 18 22 8 30 -19
16 -16 -9 -25 -9 -36 1 -13 10 -13 15 1 35 31 48 7 68 -52 44z m57 -10 c0 -5
-12 -10 -27 -9 l-28 1 25 8 c14 4 26 8 28 9 1 1 2 -3 2 -9z"/>
<path d="M880 2499 c0 -5 5 -7 10 -4 6 3 10 8 10 11 0 2 -4 4 -10 4 -5 0 -10
-5 -10 -11z"/>
<path d="M3280 2770 c0 -5 5 -10 11 -10 5 0 7 5 4 10 -3 6 -8 10 -11 10 -2 0
-4 -4 -4 -10z"/>
<path d="M3101 2654 c0 -11 3 -14 6 -6 3 7 2 16 -1 19 -3 4 -6 -2 -5 -13z"/>
<path d="M2998 2643 c7 -3 16 -2 19 1 4 3 -2 6 -13 5 -11 0 -14 -3 -6 -6z"/>
<path d="M2990 2620 c0 -5 5 -10 11 -10 5 0 7 5 4 10 -3 6 -8 10 -11 10 -2 0
-4 -4 -4 -10z"/>
<path d="M2227 1833 c-4 -3 -7 -16 -7 -29 0 -31 35 -21 38 12 2 23 -16 33 -31
17z"/>
<path d="M2316 1787 c3 -10 9 -15 12 -12 3 3 0 11 -7 18 -10 9 -11 8 -5 -6z"/>
<path d="M1641 1714 c-13 -16 -12 -16 14 -10 l30 8 -28 -22 c-15 -12 -27 -30
-27 -41 0 -11 -5 -30 -11 -41 -9 -16 -7 -24 6 -37 16 -15 17 -14 10 8 -5 16
-4 21 4 17 6 -4 11 -2 11 5 0 8 4 8 15 -1 20 -16 19 -30 -1 -30 -12 0 -15 -7
-12 -29 2 -17 1 -28 -3 -25 -4 2 -12 -4 -18 -13 -8 -14 -10 -11 -6 17 4 32 3
31 -10 -9 -8 -25 -11 -47 -6 -50 14 -10 9 -45 -11 -67 -10 -12 -20 -34 -21
-50 -2 -23 2 -30 21 -32 12 -2 22 2 22 8 0 7 6 5 16 -4 8 -9 22 -16 30 -16 24
0 17 -56 -8 -76 -14 -10 -16 -14 -6 -11 15 5 16 2 3 -39 -7 -25 -18 -51 -25
-58 -6 -8 -12 -28 -15 -46 -2 -17 -11 -42 -19 -55 -9 -13 -13 -31 -10 -40 4
-10 2 -15 -6 -13 -7 2 -13 -7 -15 -19 -1 -13 -5 -26 -10 -30 -4 -5 -5 0 -2 10
4 10 3 16 -2 13 -14 -9 -21 -47 -8 -40 7 3 4 -1 -6 -9 -25 -20 -88 -189 -94
-253 -5 -42 -3 -52 12 -58 10 -3 20 -4 22 -2 3 3 12 42 19 87 8 46 26 110 39
143 13 32 22 63 19 68 -3 4 -1 8 4 8 11 0 25 38 22 59 -1 8 4 10 12 5 7 -4 10
-4 6 1 -4 4 -2 15 4 23 7 8 13 28 14 44 1 16 9 37 19 48 9 10 14 24 9 31 -4 7
-3 10 4 5 6 -3 16 7 24 24 7 16 16 30 19 30 10 0 67 170 78 234 17 93 14 124
-10 131 -15 5 -19 13 -15 28 12 52 29 168 24 173 -3 3 -30 7 -59 10 -43 4 -57
1 -68 -12z m46 -106 c-3 -7 -5 -2 -5 12 0 14 2 19 5 13 2 -7 2 -19 0 -25z
m-46 -135 c-12 -20 -14 -14 -5 12 4 9 9 14 11 11 3 -2 0 -13 -6 -23z"/>
<path d="M4088 1661 c-32 -42 -42 -48 -72 -47 -23 1 -36 6 -36 15 0 11 3 11
18 0 15 -13 16 -12 3 4 -8 10 -21 15 -30 12 -8 -3 -12 -3 -8 1 9 9 -13 35 -24
28 -12 -7 -12 -54 0 -54 5 0 9 -10 10 -22 1 -13 2 -43 4 -68 1 -28 8 -48 17
-53 9 -4 4 -6 -13 -3 -24 3 -27 1 -22 -18 6 -21 6 -21 -6 -1 -7 11 -12 21 -13
21 -1 1 -23 -1 -49 -6 -58 -8 -64 -1 -74 89 -3 33 -9 58 -13 56 -5 -3 -20 -25
-34 -50 -22 -37 -25 -49 -15 -66 8 -15 14 -18 22 -10 23 23 25 10 3 -14 -15
-16 -34 -25 -53 -25 -24 0 -32 -7 -46 -34 -24 -52 -119 -202 -176 -281 -28
-38 -51 -73 -51 -77 0 -11 52 -10 69 1 7 5 11 13 8 18 -3 5 11 7 31 5 35 -4
36 -4 22 14 -12 17 -12 17 0 6 8 -7 16 -17 16 -22 1 -6 2 -14 3 -20 2 -19 26
-10 52 21 25 29 31 31 108 34 44 2 81 0 81 -3 0 -4 11 -12 25 -18 18 -9 24 -9
22 0 -1 6 6 10 15 10 10 -1 15 3 11 9 -4 6 0 8 11 4 9 -4 15 -3 12 1 -7 12 26
37 49 36 47 -1 57 11 82 97 13 46 44 134 69 196 45 113 50 138 35 161 -5 9
-25 -26 -59 -106 -28 -65 -54 -132 -58 -147 -6 -23 -8 -25 -16 -11 -11 19 -1
59 13 51 5 -4 9 0 9 9 0 8 -4 16 -9 18 -10 4 -2 68 9 68 5 0 6 -10 2 -22 -3
-14 -2 -19 6 -14 7 4 12 11 12 16 0 5 5 21 12 37 6 15 12 37 12 48 1 11 6 19
12 18 20 -4 48 73 38 106 l-9 29 -37 -47z m-91 -423 c-3 -8 -6 -5 -6 6 -1 11
2 17 5 13 3 -3 4 -12 1 -19z"/>
<path d="M1920 1642 c0 -32 5 -116 10 -188 12 -152 -2 -270 -44 -375 -47 -118
-27 -166 24 -56 69 147 85 298 53 517 -8 52 -14 103 -14 112 0 10 -5 20 -10
23 -5 4 -7 11 -4 16 4 5 1 9 -4 9 -7 0 -11 -24 -11 -58z"/>
<path d="M2184 1652 c-6 -4 -13 -19 -16 -34 -5 -26 -3 -28 41 -33 81 -11 101
-9 101 10 0 8 8 15 18 15 14 0 15 2 2 10 -8 5 -10 10 -5 10 6 0 3 4 -5 9 -8 6
-30 9 -51 9 -20 0 -45 2 -55 6 -10 3 -24 2 -30 -2z"/>
<path d="M5514 1516 c-32 -14 -54 -57 -54 -100 1 -19 13 -59 34 -107 6 -14 1
-15 -38 -9 -48 7 -56 5 -56 -15 0 -7 22 -15 52 -18 34 -4 72 -19 111 -43 32
-20 60 -34 63 -32 2 3 -16 27 -41 54 -54 58 -85 121 -85 170 0 59 14 74 70 74
41 0 55 -5 86 -32 21 -18 47 -55 60 -81 l22 -49 15 23 c8 13 18 39 22 57 4 21
21 44 46 64 47 38 50 50 8 38 -40 -12 -64 -33 -79 -71 l-12 -29 -29 40 c-16
21 -40 47 -54 56 -34 22 -103 27 -141 10z"/>
<path d="M4802 1503 c-26 -24 -66 -93 -53 -93 5 0 22 5 36 12 20 9 34 9 62 -1
29 -11 37 -11 44 0 17 27 9 46 -23 57 l-33 12 42 -4 c38 -4 63 7 63 26 0 4
-27 8 -59 8 -42 0 -64 -5 -79 -17z"/>
<path d="M1851 1481 c-7 -5 -10 -14 -7 -20 4 -6 2 -11 -3 -11 -6 0 -11 -13
-11 -29 0 -16 -9 -50 -20 -76 -11 -25 -19 -49 -19 -53 3 -20 -2 -33 -11 -27
-6 4 -7 -1 -3 -11 5 -15 7 -14 17 2 18 31 48 118 49 139 0 11 4 22 7 25 6 5
22 70 17 70 -1 0 -8 -4 -16 -9z"/>
<path d="M653 1458 c3 -9 2 -19 -3 -24 -8 -9 -13 -37 -11 -63 2 -27 19 3 26
45 4 29 3 44 -6 50 -8 5 -11 2 -6 -8z"/>
<path d="M2109 1394 c0 -38 -5 -94 -10 -124 -17 -95 -16 -115 5 -115 13 0 23
12 33 40 7 22 17 49 22 60 27 57 50 116 56 145 5 21 10 28 15 20 5 -9 9 -8 13
4 8 21 -1 25 -72 32 l-61 7 -1 -69z"/>
<path d="M1590 1426 c0 -9 5 -16 10 -16 6 0 10 4 10 9 0 6 -4 13 -10 16 -5 3
-10 -1 -10 -9z"/>
<path d="M1560 1405 c0 -8 5 -15 10 -15 6 0 10 7 10 15 0 8 -4 15 -10 15 -5 0
-10 -7 -10 -15z"/>
<path d="M2221 1384 c0 -11 3 -14 6 -6 3 7 2 16 -1 19 -3 4 -6 -2 -5 -13z"/>
<path d="M4916 1388 c-3 -7 -7 -35 -11 -63 -4 -27 -17 -69 -31 -92 -30 -52
-32 -83 -4 -76 23 6 52 50 74 113 12 34 13 54 5 82 -10 40 -27 57 -33 36z"/>
<path d="M734 1252 c4 -7 16 -12 27 -12 11 0 33 -7 49 -15 17 -9 30 -12 30 -8
0 4 15 -14 34 -40 19 -27 37 -43 41 -37 8 13 -27 57 -69 88 -36 25 -125 44
-112 24z"/>
<path d="M1136 1244 c-9 -22 3 -32 14 -14 12 19 12 30 1 30 -5 0 -12 -7 -15
-16z"/>
<path d="M4677 1203 c-12 -11 -8 -23 8 -23 8 0 15 7 15 15 0 16 -12 20 -23 8z"/>
<path d="M1498 1168 c-16 -5 -28 -14 -28 -19 0 -6 -5 -7 -12 -3 -6 4 -8 3 -4
-4 3 -6 2 -14 -4 -17 -12 -7 5 -35 21 -35 10 0 64 79 58 84 -2 2 -16 -1 -31
-6z"/>
<path d="M4643 1153 c-3 -10 -7 -21 -9 -24 -2 -3 3 -6 11 -6 8 0 12 4 9 9 -3
4 2 11 10 14 9 3 13 10 10 15 -9 15 -24 10 -31 -8z"/>
<path d="M4625 1099 c-9 -14 -2 -20 14 -10 8 6 9 11 3 15 -6 3 -14 1 -17 -5z"/>
<path d="M4610 1041 c0 -25 6 -27 13 -6 4 8 2 17 -3 20 -6 4 -10 -3 -10 -14z"/>
<path d="M1636 1035 c-9 -26 -7 -32 5 -12 6 10 9 21 6 23 -2 3 -7 -2 -11 -11z"/>
<path d="M3345 983 c3 -7 -22 -39 -59 -75 -68 -66 -88 -109 -53 -116 27 -6 77
18 71 33 -3 7 1 13 8 12 44 -2 50 3 46 33 -3 17 -1 33 4 36 13 9 9 49 -8 70
-8 10 -13 14 -9 7z"/>
<path d="M3874 952 c-43 -37 -65 -74 -75 -125 l-7 -42 25 30 c43 53 73 101 83
133 5 18 8 32 7 32 -1 0 -16 -13 -33 -28z"/>
<path d="M3600 899 c0 -5 -5 -7 -11 -4 -6 4 -13 -2 -16 -14 -3 -12 -9 -21 -13
-21 -5 0 -16 -20 -26 -45 -14 -37 -16 -62 -10 -132 3 -48 9 -89 12 -92 8 -9
34 30 40 59 3 14 12 49 21 78 8 29 13 56 9 59 -3 3 -1 12 4 18 6 7 14 33 19
59 8 41 7 46 -10 46 -11 0 -19 -5 -19 -11z m17 -41 c-3 -8 -6 -5 -6 6 -1 11 2
17 5 13 3 -3 4 -12 1 -19z"/>
<path d="M1274 803 c-9 -20 -16 -48 -17 -61 -3 -46 19 -33 44 25 13 32 26 61
27 65 2 4 -6 8 -18 8 -15 0 -25 -11 -36 -37z"/>
<path d="M4401 814 c-16 -21 -18 -30 -9 -49 13 -29 28 -23 28 11 0 14 5 34 10
45 16 28 -5 24 -29 -7z"/>
<path d="M4687 785 c3 -14 1 -25 -3 -25 -5 0 -15 -9 -22 -20 -10 -17 -8 -21
19 -36 43 -22 31 -27 -26 -9 -39 11 -56 12 -86 2 -31 -9 -40 -19 -58 -62 -12
-28 -21 -56 -21 -62 0 -6 -3 -13 -8 -15 -4 -1 -20 -33 -36 -70 -15 -38 -31
-68 -35 -68 -3 0 -15 -16 -25 -35 -11 -19 -21 -34 -22 -32 -5 4 28 97 72 210
20 48 33 93 30 100 -3 9 -5 9 -5 0 -1 -7 -10 -13 -21 -13 -12 0 -31 -6 -43
-14 -12 -8 -34 -17 -49 -20 -41 -7 -42 -9 -83 -103 -56 -131 -48 -185 37 -229
38 -20 52 -18 122 15 33 15 108 50 166 76 58 26 110 53 117 59 18 17 93 194
93 221 0 13 -5 27 -10 30 -6 4 -8 25 -4 54 l6 48 -30 -5 c-17 -2 -40 3 -55 12
-24 16 -24 16 -20 -9z"/>
<path d="M2035 758 c-4 -24 -7 -47 -7 -53 0 -5 -4 -18 -9 -27 -6 -11 -5 -19 3
-24 7 -4 10 -4 7 0 -10 10 62 87 74 79 14 -8 -1 16 -26 45 -29 31 -35 28 -42
-20z"/>
<path d="M2686 618 c-15 -17 -16 -22 -5 -30 11 -7 9 -8 -6 -6 -11 2 -31 -9
-47 -24 -16 -16 -39 -28 -53 -28 -13 0 -25 -5 -27 -10 -2 -6 -17 -12 -33 -14
-17 -2 -47 -7 -67 -11 -33 -6 -45 -2 -99 34 -64 43 -74 48 -64 31 13 -22 -44
-34 -103 -22 -31 6 -78 14 -104 18 -32 4 -46 10 -41 18 4 6 0 5 -9 -2 -11 -9
-18 -10 -23 -2 -3 5 -23 10 -43 10 -20 0 -55 5 -77 10 -22 5 -60 12 -85 16
-25 3 -48 7 -53 8 -8 1 -76 -141 -77 -160 0 -12 230 -125 351 -172 394 -155
746 -222 1169 -222 217 0 377 11 525 35 50 8 104 17 122 20 28 5 33 12 52 67
12 34 21 73 21 87 0 21 2 23 10 11 8 -11 9 -9 5 10 -3 14 7 76 23 138 l28 112
-46 0 c-25 0 -57 7 -72 14 -24 13 -28 13 -28 1 0 -29 -51 -46 -213 -74 -91
-16 -170 -31 -174 -34 -4 -3 -46 -8 -93 -11 -83 -7 -86 -6 -109 18 -20 21 -22
26 -8 26 10 0 17 8 17 21 0 11 -5 17 -10 14 -6 -4 -7 -11 -4 -17 4 -6 -1 -8
-13 -4 -14 4 -28 -1 -44 -18 -33 -33 -101 -39 -156 -13 -24 10 -40 23 -37 28
10 17 -12 9 -35 -12 -30 -29 -68 -37 -116 -27 -50 11 -71 28 -53 40 9 6 8 8
-5 6 -24 -4 -65 67 -61 105 3 35 -8 41 -30 15z m627 -205 c-7 -2 -19 -2 -25 0
-7 3 -2 5 12 5 14 0 19 -2 13 -5z m-213 -78 c0 -8 -4 -15 -10 -15 -5 0 -10 7
-10 15 0 8 5 15 10 15 6 0 10 -7 10 -15z"/>
<path d="M1596 537 c3 -10 9 -15 12 -12 3 3 0 11 -7 18 -10 9 -11 8 -5 -6z"/>
<path d="M1615 490 c3 -5 8 -10 11 -10 2 0 4 5 4 10 0 6 -5 10 -11 10 -5 0 -7
-4 -4 -10z"/>
</g>
</svg>
